<?xml version="1.0" encoding="utf-8" standalone="no"?>
<!DOCTYPE svg PUBLIC "-//W3C//DTD SVG 1.1//EN"
  "http://www.w3.org/Graphics/SVG/1.1/DTD/svg11.dtd">
<svg xmlns:xlink="http://www.w3.org/1999/xlink" width="1440pt" height="360pt" viewBox="0 0 1440 360" xmlns="http://www.w3.org/2000/svg" version="1.1">
 <metadata>
  <rdf:RDF xmlns:dc="http://purl.org/dc/elements/1.1/" xmlns:cc="http://creativecommons.org/ns#" xmlns:rdf="http://www.w3.org/1999/02/22-rdf-syntax-ns#">
   <cc:Work>
    <dc:type rdf:resource="http://purl.org/dc/dcmitype/StillImage"/>
    <dc:date>2023-01-24T11:09:31.203577</dc:date>
    <dc:format>image/svg+xml</dc:format>
    <dc:creator>
     <cc:Agent>
      <dc:title>Matplotlib v3.5.2, https://matplotlib.org/</dc:title>
     </cc:Agent>
    </dc:creator>
   </cc:Work>
  </rdf:RDF>
 </metadata>
 <defs>
  <style type="text/css">*{stroke-linejoin: round; stroke-linecap: butt}</style>
 </defs>
 <g id="figure_1">
  <g id="patch_1">
   <path d="M 0 360 
L 1440 360 
L 1440 0 
L 0 0 
z
" style="fill: #ffffff"/>
  </g>
  <g id="axes_1">
   <g id="patch_2">
    <path d="M 180 320.4 
L 1296 320.4 
L 1296 43.2 
L 180 43.2 
z
" style="fill: #ffffff"/>
   </g>
   <g id="matplotlib.axis_1">
    <g id="xtick_1">
     <g id="line2d_1">
      <defs>
       <path id="m8874146e64" d="M 0 0 
L 0 -5 
" style="stroke: #000000; stroke-width: 2"/>
      </defs>
      <g>
       <use xlink:href="#m8874146e64" x="180" y="320.4" style="stroke: #000000; stroke-width: 2"/>
      </g>
     </g>
     <g id="text_1">
      <!-- $\mathdefault{0.000}$ -->
      <g transform="translate(148.521137 344.655495)scale(0.3 -0.3)">
       <defs>
        <path id="CMR17-30" d="M 2688 2038 
C 2688 2430 2682 3099 2413 3613 
C 2176 4063 1798 4224 1466 4224 
C 1158 4224 768 4082 525 3620 
C 269 3137 243 2539 243 2038 
C 243 1671 250 1112 448 623 
C 723 -39 1216 -128 1466 -128 
C 1760 -128 2208 -7 2470 604 
C 2662 1048 2688 1568 2688 2038 
z
M 1466 -26 
C 1056 -26 813 328 723 816 
C 653 1196 653 1749 653 2109 
C 653 2604 653 3015 736 3407 
C 858 3954 1216 4121 1466 4121 
C 1728 4121 2067 3947 2189 3420 
C 2272 3054 2278 2623 2278 2109 
C 2278 1691 2278 1176 2202 797 
C 2067 96 1690 -26 1466 -26 
z
" transform="scale(0.015625)"/>
        <path id="CMMI12-3a" d="M 1178 307 
C 1178 492 1024 620 870 620 
C 685 620 557 467 557 313 
C 557 128 710 0 864 0 
C 1050 0 1178 153 1178 307 
z
" transform="scale(0.015625)"/>
       </defs>
       <use xlink:href="#CMR17-30" transform="scale(0.996264)"/>
       <use xlink:href="#CMMI12-3a" transform="translate(45.690477 0)scale(0.996264)"/>
       <use xlink:href="#CMR17-30" transform="translate(72.787654 0)scale(0.996264)"/>
       <use xlink:href="#CMR17-30" transform="translate(118.478131 0)scale(0.996264)"/>
       <use xlink:href="#CMR17-30" transform="translate(164.168608 0)scale(0.996264)"/>
      </g>
     </g>
    </g>
    <g id="xtick_2">
     <g id="line2d_2">
      <g>
       <use xlink:href="#m8874146e64" x="403.2" y="320.4" style="stroke: #000000; stroke-width: 2"/>
      </g>
     </g>
     <g id="text_2">
      <!-- $\mathdefault{0.001}$ -->
      <g transform="translate(371.721137 344.655495)scale(0.3 -0.3)">
       <defs>
        <path id="CMR17-31" d="M 1702 4083 
C 1702 4217 1696 4224 1606 4224 
C 1357 3927 979 3833 621 3820 
C 602 3820 570 3820 563 3808 
C 557 3795 557 3782 557 3648 
C 755 3648 1088 3686 1344 3839 
L 1344 467 
C 1344 243 1331 166 781 166 
L 589 166 
L 589 0 
C 896 6 1216 12 1523 12 
C 1830 12 2150 6 2458 0 
L 2458 166 
L 2266 166 
C 1715 166 1702 236 1702 467 
L 1702 4083 
z
" transform="scale(0.015625)"/>
       </defs>
       <use xlink:href="#CMR17-30" transform="scale(0.996264)"/>
       <use xlink:href="#CMMI12-3a" transform="translate(45.690477 0)scale(0.996264)"/>
       <use xlink:href="#CMR17-30" transform="translate(72.787654 0)scale(0.996264)"/>
       <use xlink:href="#CMR17-30" transform="translate(118.478131 0)scale(0.996264)"/>
       <use xlink:href="#CMR17-31" transform="translate(164.168608 0)scale(0.996264)"/>
      </g>
     </g>
    </g>
    <g id="xtick_3">
     <g id="line2d_3">
      <g>
       <use xlink:href="#m8874146e64" x="626.4" y="320.4" style="stroke: #000000; stroke-width: 2"/>
      </g>
     </g>
     <g id="text_3">
      <!-- $\mathdefault{0.002}$ -->
      <g transform="translate(594.921137 344.655495)scale(0.3 -0.3)">
       <defs>
        <path id="CMR17-32" d="M 2669 990 
L 2554 990 
C 2490 537 2438 460 2413 422 
C 2381 371 1920 371 1830 371 
L 602 371 
C 832 620 1280 1073 1824 1596 
C 2214 1966 2669 2400 2669 3033 
C 2669 3788 2067 4224 1395 4224 
C 691 4224 262 3603 262 3027 
C 262 2777 448 2745 525 2745 
C 589 2745 781 2783 781 3007 
C 781 3206 614 3264 525 3264 
C 486 3264 448 3257 422 3244 
C 544 3788 915 4057 1306 4057 
C 1862 4057 2227 3616 2227 3033 
C 2227 2477 1901 1998 1536 1583 
L 262 147 
L 262 0 
L 2515 0 
L 2669 990 
z
" transform="scale(0.015625)"/>
       </defs>
       <use xlink:href="#CMR17-30" transform="scale(0.996264)"/>
       <use xlink:href="#CMMI12-3a" transform="translate(45.690477 0)scale(0.996264)"/>
       <use xlink:href="#CMR17-30" transform="translate(72.787654 0)scale(0.996264)"/>
       <use xlink:href="#CMR17-30" transform="translate(118.478131 0)scale(0.996264)"/>
       <use xlink:href="#CMR17-32" transform="translate(164.168608 0)scale(0.996264)"/>
      </g>
     </g>
    </g>
    <g id="xtick_4">
     <g id="line2d_4">
      <g>
       <use xlink:href="#m8874146e64" x="849.6" y="320.4" style="stroke: #000000; stroke-width: 2"/>
      </g>
     </g>
     <g id="text_4">
      <!-- $\mathdefault{0.003}$ -->
      <g transform="translate(818.121137 344.655495)scale(0.3 -0.3)">
       <defs>
        <path id="CMR17-33" d="M 1414 2176 
C 1984 2176 2234 1673 2234 1094 
C 2234 322 1824 25 1453 25 
C 1114 25 563 193 390 691 
C 422 678 454 678 486 678 
C 640 678 755 780 755 947 
C 755 1132 614 1216 486 1216 
C 378 1216 211 1164 211 927 
C 211 335 787 -128 1466 -128 
C 2176 -128 2720 432 2720 1087 
C 2720 1718 2208 2176 1600 2246 
C 2086 2347 2554 2776 2554 3353 
C 2554 3856 2048 4224 1472 4224 
C 890 4224 378 3862 378 3347 
C 378 3123 544 3084 627 3084 
C 762 3084 877 3167 877 3334 
C 877 3500 762 3584 627 3584 
C 602 3584 570 3584 544 3571 
C 730 3999 1235 4076 1459 4076 
C 1683 4076 2106 3966 2106 3347 
C 2106 3167 2080 2851 1862 2574 
C 1670 2329 1453 2316 1242 2297 
C 1210 2297 1062 2284 1037 2284 
C 992 2278 966 2272 966 2227 
C 966 2182 973 2176 1101 2176 
L 1414 2176 
z
" transform="scale(0.015625)"/>
       </defs>
       <use xlink:href="#CMR17-30" transform="scale(0.996264)"/>
       <use xlink:href="#CMMI12-3a" transform="translate(45.690477 0)scale(0.996264)"/>
       <use xlink:href="#CMR17-30" transform="translate(72.787654 0)scale(0.996264)"/>
       <use xlink:href="#CMR17-30" transform="translate(118.478131 0)scale(0.996264)"/>
       <use xlink:href="#CMR17-33" transform="translate(164.168608 0)scale(0.996264)"/>
      </g>
     </g>
    </g>
    <g id="xtick_5">
     <g id="line2d_5">
      <g>
       <use xlink:href="#m8874146e64" x="1072.8" y="320.4" style="stroke: #000000; stroke-width: 2"/>
      </g>
     </g>
     <g id="text_5">
      <!-- $\mathdefault{0.004}$ -->
      <g transform="translate(1041.321137 344.655495)scale(0.3 -0.3)">
       <defs>
        <path id="CMR17-34" d="M 2150 4147 
C 2150 4281 2144 4288 2029 4288 
L 128 1254 
L 128 1088 
L 1779 1088 
L 1779 460 
C 1779 230 1766 166 1318 166 
L 1197 166 
L 1197 0 
C 1402 12 1747 12 1965 12 
C 2182 12 2528 12 2733 0 
L 2733 166 
L 2611 166 
C 2163 166 2150 230 2150 460 
L 2150 1088 
L 2803 1088 
L 2803 1254 
L 2150 1254 
L 2150 4147 
z
M 1798 3723 
L 1798 1254 
L 256 1254 
L 1798 3723 
z
" transform="scale(0.015625)"/>
       </defs>
       <use xlink:href="#CMR17-30" transform="scale(0.996264)"/>
       <use xlink:href="#CMMI12-3a" transform="translate(45.690477 0)scale(0.996264)"/>
       <use xlink:href="#CMR17-30" transform="translate(72.787654 0)scale(0.996264)"/>
       <use xlink:href="#CMR17-30" transform="translate(118.478131 0)scale(0.996264)"/>
       <use xlink:href="#CMR17-34" transform="translate(164.168608 0)scale(0.996264)"/>
      </g>
     </g>
    </g>
    <g id="xtick_6">
     <g id="line2d_6">
      <g>
       <use xlink:href="#m8874146e64" x="1296" y="320.4" style="stroke: #000000; stroke-width: 2"/>
      </g>
     </g>
     <g id="text_6">
      <!-- $\mathdefault{0.005}$ -->
      <g transform="translate(1264.521137 344.655495)scale(0.3 -0.3)">
       <defs>
        <path id="CMR17-35" d="M 730 3750 
C 794 3724 1056 3641 1325 3641 
C 1920 3641 2246 3961 2432 4140 
C 2432 4191 2432 4224 2394 4224 
C 2387 4224 2374 4224 2323 4198 
C 2099 4102 1837 4032 1517 4032 
C 1325 4032 1037 4055 723 4191 
C 653 4224 640 4224 634 4224 
C 602 4224 595 4217 595 4090 
L 595 2231 
C 595 2113 595 2080 659 2080 
C 691 2080 704 2093 736 2139 
C 941 2435 1222 2560 1542 2560 
C 1766 2560 2246 2415 2246 1293 
C 2246 1087 2246 716 2054 422 
C 1894 159 1645 25 1370 25 
C 947 25 518 319 403 812 
C 429 806 480 793 506 793 
C 589 793 749 838 749 1036 
C 749 1209 627 1280 506 1280 
C 358 1280 262 1190 262 1011 
C 262 454 704 -128 1382 -128 
C 2042 -128 2669 441 2669 1267 
C 2669 2054 2170 2662 1549 2662 
C 1222 2662 947 2540 730 2304 
L 730 3750 
z
" transform="scale(0.015625)"/>
       </defs>
       <use xlink:href="#CMR17-30" transform="scale(0.996264)"/>
       <use xlink:href="#CMMI12-3a" transform="translate(45.690477 0)scale(0.996264)"/>
       <use xlink:href="#CMR17-30" transform="translate(72.787654 0)scale(0.996264)"/>
       <use xlink:href="#CMR17-30" transform="translate(118.478131 0)scale(0.996264)"/>
       <use xlink:href="#CMR17-35" transform="translate(164.168608 0)scale(0.996264)"/>
      </g>
     </g>
    </g>
    <g id="text_7">
     <!-- Time [s] -->
     <g transform="translate(697.577305 373.126473)scale(0.25 -0.25)">
      <defs>
       <path id="CMSS17-54" d="M 2317 3987 
L 2848 3987 
C 2925 3987 3002 3980 3078 3980 
L 3878 3980 
L 3878 4396 
L 218 4396 
L 218 3980 
L 1018 3980 
C 1094 3980 1171 3987 1248 3987 
L 1779 3987 
L 1779 0 
L 2317 0 
L 2317 3987 
z
" transform="scale(0.015625)"/>
       <path id="CMSS17-69" d="M 979 4224 
L 442 4224 
L 442 3686 
L 979 3686 
L 979 4224 
z
M 947 2752 
L 474 2752 
L 474 0 
L 947 0 
L 947 2752 
z
" transform="scale(0.015625)"/>
       <path id="CMSS17-6d" d="M 4288 1878 
C 4288 2309 4179 2816 3462 2816 
C 2982 2816 2694 2515 2566 2328 
C 2451 2668 2182 2816 1798 2816 
C 1363 2816 1088 2566 941 2386 
L 941 2783 
L 474 2783 
L 474 0 
L 960 0 
L 960 1556 
C 960 1936 1101 2425 1555 2425 
C 2138 2425 2138 2013 2138 1826 
L 2138 0 
L 2624 0 
L 2624 1556 
C 2624 1936 2765 2425 3219 2425 
C 3802 2425 3802 2013 3802 1826 
L 3802 0 
L 4288 0 
L 4288 1878 
z
" transform="scale(0.015625)"/>
       <path id="CMSS17-65" d="M 2502 1375 
C 2502 1587 2490 2001 2285 2347 
C 2061 2713 1696 2816 1421 2816 
C 755 2816 192 2184 192 1363 
C 192 579 774 -64 1510 -64 
C 1798 -64 2150 19 2470 249 
C 2470 275 2458 414 2451 421 
C 2451 433 2432 629 2432 655 
C 2125 408 1773 326 1517 326 
C 1107 326 666 667 646 1375 
L 2502 1375 
z
M 698 1728 
C 781 2086 1062 2425 1421 2425 
C 1517 2425 1965 2412 2080 1728 
L 698 1728 
z
" transform="scale(0.015625)"/>
       <path id="CMSS17-5b" d="M 1613 -1600 
L 1613 -1210 
L 1062 -1210 
L 1062 4409 
L 1613 4409 
L 1613 4800 
L 595 4800 
L 595 -1600 
L 1613 -1600 
z
" transform="scale(0.015625)"/>
       <path id="CMSS17-73" d="M 2061 2623 
C 1683 2803 1389 2816 1197 2816 
C 742 2816 198 2655 198 2009 
C 198 1363 902 1222 1094 1183 
C 1389 1126 1715 1062 1715 742 
C 1715 339 1254 339 1171 339 
C 915 339 563 409 243 639 
L 166 211 
C 531 0 883 -64 1178 -64 
C 1965 -64 2163 416 2163 780 
C 2163 1094 1984 1305 1862 1401 
C 1651 1567 1574 1587 1050 1695 
C 960 1708 646 1779 646 2067 
C 646 2431 1050 2431 1139 2431 
C 1555 2431 1811 2303 1984 2207 
L 2061 2623 
z
" transform="scale(0.015625)"/>
       <path id="CMSS17-5d" d="M 1146 4800 
L 128 4800 
L 128 4409 
L 678 4409 
L 678 -1210 
L 128 -1210 
L 128 -1600 
L 1146 -1600 
L 1146 4800 
z
" transform="scale(0.015625)"/>
      </defs>
      <use xlink:href="#CMSS17-54" transform="scale(0.996264)"/>
      <use xlink:href="#CMSS17-69" transform="translate(63.819454 0)scale(0.996264)"/>
      <use xlink:href="#CMSS17-6d" transform="translate(86.000177 0)scale(0.996264)"/>
      <use xlink:href="#CMSS17-65" transform="translate(160.229431 0)scale(0.996264)"/>
      <use xlink:href="#CMSS17-5b" transform="translate(233.097366 0)scale(0.996264)"/>
      <use xlink:href="#CMSS17-73" transform="translate(260.282805 0)scale(0.996264)"/>
      <use xlink:href="#CMSS17-5d" transform="translate(296.196347 0)scale(0.996264)"/>
     </g>
    </g>
   </g>
   <g id="matplotlib.axis_2">
    <g id="ytick_1">
     <g id="line2d_7">
      <defs>
       <path id="m19fc307887" d="M 0 0 
L 5 0 
" style="stroke: #000000; stroke-width: 2"/>
      </defs>
      <g>
       <use xlink:href="#m19fc307887" x="180" y="307.8" style="stroke: #000000; stroke-width: 2"/>
      </g>
     </g>
     <g id="text_8">
      <!-- $\mathdefault{0.0}$ -->
      <g transform="translate(140.956561 318.177748)scale(0.3 -0.3)">
       <use xlink:href="#CMR17-30" transform="scale(0.996264)"/>
       <use xlink:href="#CMMI12-3a" transform="translate(45.690477 0)scale(0.996264)"/>
       <use xlink:href="#CMR17-30" transform="translate(72.787654 0)scale(0.996264)"/>
      </g>
     </g>
    </g>
    <g id="ytick_2">
     <g id="line2d_8">
      <g>
       <use xlink:href="#m19fc307887" x="180" y="181.8" style="stroke: #000000; stroke-width: 2"/>
      </g>
     </g>
     <g id="text_9">
      <!-- $\mathdefault{0.5}$ -->
      <g transform="translate(140.956561 192.177748)scale(0.3 -0.3)">
       <use xlink:href="#CMR17-30" transform="scale(0.996264)"/>
       <use xlink:href="#CMMI12-3a" transform="translate(45.690477 0)scale(0.996264)"/>
       <use xlink:href="#CMR17-35" transform="translate(72.787654 0)scale(0.996264)"/>
      </g>
     </g>
    </g>
    <g id="ytick_3">
     <g id="line2d_9">
      <g>
       <use xlink:href="#m19fc307887" x="180" y="55.8" style="stroke: #000000; stroke-width: 2"/>
      </g>
     </g>
     <g id="text_10">
      <!-- $\mathdefault{1.0}$ -->
      <g transform="translate(140.956561 66.177748)scale(0.3 -0.3)">
       <use xlink:href="#CMR17-31" transform="scale(0.996264)"/>
       <use xlink:href="#CMMI12-3a" transform="translate(45.690477 0)scale(0.996264)"/>
       <use xlink:href="#CMR17-30" transform="translate(72.787654 0)scale(0.996264)"/>
      </g>
     </g>
    </g>
    <g id="text_11">
     <!-- Voltage [mV] -->
     <g transform="translate(130.750752 246.540309)rotate(-90)scale(0.25 -0.25)">
      <defs>
       <path id="CMSS17-56" d="M 3910 4416 
L 3411 4416 
L 2304 1361 
C 2272 1272 2074 687 2035 484 
L 2029 484 
C 1978 725 1773 1291 1664 1603 
L 922 3670 
L 646 4416 
L 83 4416 
L 1715 0 
L 2278 0 
L 3910 4416 
z
" transform="scale(0.015625)"/>
       <path id="CMSS17-6f" d="M 2829 1356 
C 2829 2175 2221 2816 1504 2816 
C 768 2816 173 2156 173 1356 
C 173 544 787 -64 1498 -64 
C 2227 -64 2829 563 2829 1356 
z
M 1504 339 
C 1050 339 659 710 659 1407 
C 659 2150 1114 2425 1498 2425 
C 1914 2425 2342 2124 2342 1407 
C 2342 684 1926 339 1504 339 
z
" transform="scale(0.015625)"/>
       <path id="CMSS17-6c" d="M 947 4416 
L 474 4416 
L 474 0 
L 947 0 
L 947 4416 
z
" transform="scale(0.015625)"/>
       <path id="CMSS17-74" d="M 1069 2380 
L 1901 2380 
L 1901 2752 
L 1069 2752 
L 1069 3520 
L 614 3520 
L 614 2752 
L 109 2752 
L 109 2380 
L 602 2380 
L 602 751 
C 602 384 685 -64 1107 -64 
C 1427 -64 1722 25 2003 172 
L 1901 551 
C 1747 416 1562 339 1363 339 
C 1082 339 1069 699 1069 860 
L 1069 2380 
z
" transform="scale(0.015625)"/>
       <path id="CMSS17-61" d="M 2406 1789 
C 2406 2399 1978 2816 1402 2816 
C 1120 2816 813 2764 461 2559 
L 499 2133 
C 659 2250 934 2438 1395 2438 
C 1722 2438 1920 2185 1920 1782 
L 1920 1536 
C 896 1504 256 1209 256 711 
C 256 452 416 -64 947 -64 
C 1043 -64 1562 -52 1933 224 
L 1933 -13 
L 2406 -13 
L 2406 1789 
z
M 1920 824 
C 1920 711 1920 559 1728 446 
C 1562 339 1350 326 1261 326 
C 941 326 723 503 723 723 
C 723 1165 1722 1209 1920 1216 
L 1920 824 
z
" transform="scale(0.015625)"/>
       <path id="CMSS17-67" d="M 2848 2816 
C 2483 2809 2170 2739 1914 2617 
C 1702 2783 1485 2816 1338 2816 
C 781 2816 358 2356 358 1824 
C 358 1481 550 1222 563 1209 
C 448 1049 384 876 384 684 
C 384 460 474 300 544 211 
C 211 6 166 -308 166 -429 
C 166 -896 749 -1280 1498 -1280 
C 2253 -1280 2835 -896 2835 -423 
C 2835 460 1856 467 1587 467 
L 1069 467 
C 973 467 717 467 717 793 
C 717 921 774 1004 781 1011 
C 877 940 1075 832 1338 832 
C 1869 832 2310 1279 2310 1824 
C 2310 2128 2170 2349 2112 2425 
L 2131 2425 
C 2150 2425 2419 2444 2515 2444 
C 2720 2444 2739 2438 2918 2419 
L 2848 2816 
z
M 1338 1184 
C 1120 1184 813 1317 813 1824 
C 813 2375 1165 2463 1331 2463 
C 1549 2463 1856 2330 1856 1824 
C 1856 1272 1504 1184 1338 1184 
z
M 1581 0 
C 1734 0 2381 0 2381 -436 
C 2381 -711 1984 -928 1504 -928 
C 1018 -928 621 -717 621 -429 
C 621 -397 621 0 1062 0 
L 1581 0 
z
" transform="scale(0.015625)"/>
      </defs>
      <use xlink:href="#CMSS17-56" transform="scale(0.996264)"/>
      <use xlink:href="#CMSS17-6f" transform="translate(59.615401 0)scale(0.996264)"/>
      <use xlink:href="#CMSS17-6c" transform="translate(106.459025 0)scale(0.996264)"/>
      <use xlink:href="#CMSS17-74" transform="translate(128.639748 0)scale(0.996264)"/>
      <use xlink:href="#CMSS17-61" transform="translate(162.471314 0)scale(0.996264)"/>
      <use xlink:href="#CMSS17-67" transform="translate(207.393235 0)scale(0.996264)"/>
      <use xlink:href="#CMSS17-65" transform="translate(254.236858 0)scale(0.996264)"/>
      <use xlink:href="#CMSS17-5b" transform="translate(327.104793 0)scale(0.996264)"/>
      <use xlink:href="#CMSS17-6d" transform="translate(354.290232 0)scale(0.996264)"/>
      <use xlink:href="#CMSS17-56" transform="translate(428.519486 0)scale(0.996264)"/>
      <use xlink:href="#CMSS17-5d" transform="translate(490.737341 0)scale(0.996264)"/>
     </g>
    </g>
   </g>
   <g id="line2d_10">
    <path d="M 180 181.8 
L 189.3 149.1888 
L 193.95 133.581888 
L 198.6 118.8 
L 203.25 105.09606 
L 207.9 92.704546 
L 212.55 81.837479 
L 217.2 72.680799 
L 221.85 65.391179 
L 226.5 60.093346 
L 231.15 56.877947 
L 235.8 55.8 
L 240.45 56.877947 
L 245.1 60.093346 
L 249.75 65.391179 
L 254.4 72.680799 
L 259.05 81.837479 
L 263.7 92.704546 
L 268.35 105.09606 
L 273 118.8 
L 277.65 133.581888 
L 282.3 149.1888 
L 291.6 181.8 
L 300.9 214.4112 
L 305.55 230.018112 
L 310.2 244.8 
L 314.85 258.50394 
L 319.5 270.895454 
L 324.15 281.762521 
L 328.8 290.919201 
L 333.45 298.208821 
L 338.1 303.506654 
L 342.75 306.722053 
L 347.4 307.8 
L 352.05 306.722053 
L 356.7 303.506654 
L 361.35 298.208821 
L 366 290.919201 
L 370.65 281.762521 
L 375.3 270.895454 
L 379.95 258.50394 
L 384.6 244.8 
L 389.25 230.018112 
L 393.9 214.4112 
L 403.2 181.8 
L 412.5 149.1888 
L 417.15 133.581888 
L 421.8 118.8 
L 426.45 105.09606 
L 431.1 92.704546 
L 435.75 81.837479 
L 440.4 72.680799 
L 445.05 65.391179 
L 449.7 60.093346 
L 454.35 56.877947 
L 459 55.8 
L 463.65 56.877947 
L 468.3 60.093346 
L 472.95 65.391179 
L 477.6 72.680799 
L 482.25 81.837479 
L 486.9 92.704546 
L 491.55 105.09606 
L 496.2 118.8 
L 500.85 133.581888 
L 505.5 149.1888 
L 514.8 181.8 
L 524.1 214.4112 
L 528.75 230.018112 
L 533.4 244.8 
L 538.05 258.50394 
L 542.7 270.895454 
L 547.35 281.762521 
L 552 290.919201 
L 556.65 298.208821 
L 561.3 303.506654 
L 565.95 306.722053 
L 570.6 307.8 
L 575.25 306.722053 
L 579.9 303.506654 
L 584.55 298.208821 
L 589.2 290.919201 
L 593.85 281.762521 
L 598.5 270.895454 
L 603.15 258.50394 
L 607.8 244.8 
L 612.45 230.018112 
L 617.1 214.4112 
L 626.4 181.8 
L 635.7 149.1888 
L 640.35 133.581888 
L 645 118.8 
L 649.65 105.09606 
L 654.3 92.704546 
L 658.95 81.837479 
L 663.6 72.680799 
L 668.25 65.391179 
L 672.9 60.093346 
L 677.55 56.877947 
L 682.2 55.8 
L 686.85 56.877947 
L 691.5 60.093346 
L 696.15 65.391179 
L 700.8 72.680799 
L 705.45 81.837479 
L 710.1 92.704546 
L 714.75 105.09606 
L 719.4 118.8 
L 724.05 133.581888 
L 728.7 149.1888 
L 738 181.8 
L 747.3 214.4112 
L 751.95 230.018112 
L 756.6 244.8 
L 761.25 258.50394 
L 765.9 270.895454 
L 770.55 281.762521 
L 775.2 290.919201 
L 779.85 298.208821 
L 784.5 303.506654 
L 789.15 306.722053 
L 793.8 307.8 
L 798.45 306.722053 
L 803.1 303.506654 
L 807.75 298.208821 
L 812.4 290.919201 
L 817.05 281.762521 
L 821.7 270.895454 
L 826.35 258.50394 
L 831 244.8 
L 835.65 230.018112 
L 840.3 214.4112 
L 849.6 181.8 
L 858.9 149.1888 
L 863.55 133.581888 
L 868.2 118.8 
L 872.85 105.09606 
L 877.5 92.704546 
L 882.15 81.837479 
L 886.8 72.680799 
L 891.45 65.391179 
L 896.1 60.093346 
L 900.75 56.877947 
L 905.4 55.8 
L 910.05 56.877947 
L 914.7 60.093346 
L 919.35 65.391179 
L 924 72.680799 
L 928.65 81.837479 
L 933.3 92.704546 
L 937.95 105.09606 
L 942.6 118.8 
L 947.25 133.581888 
L 951.9 149.1888 
L 961.2 181.8 
L 970.5 214.4112 
L 975.15 230.018112 
L 979.8 244.8 
L 984.45 258.50394 
L 989.1 270.895454 
L 993.75 281.762521 
L 998.4 290.919201 
L 1003.05 298.208821 
L 1007.7 303.506654 
L 1012.35 306.722053 
L 1017 307.8 
L 1021.65 306.722053 
L 1026.3 303.506654 
L 1030.95 298.208821 
L 1035.6 290.919201 
L 1040.25 281.762521 
L 1044.9 270.895454 
L 1049.55 258.50394 
L 1054.2 244.8 
L 1058.85 230.018112 
L 1063.5 214.4112 
L 1072.8 181.8 
L 1082.1 149.1888 
L 1086.75 133.581888 
L 1091.4 118.8 
L 1096.05 105.09606 
L 1100.7 92.704546 
L 1105.35 81.837479 
L 1110 72.680799 
L 1114.65 65.391179 
L 1119.3 60.093346 
L 1123.95 56.877947 
L 1128.6 55.8 
L 1133.25 56.877947 
L 1137.9 60.093346 
L 1142.55 65.391179 
L 1147.2 72.680799 
L 1151.85 81.837479 
L 1156.5 92.704546 
L 1161.15 105.09606 
L 1165.8 118.8 
L 1170.45 133.581888 
L 1175.1 149.1888 
L 1184.4 181.8 
L 1193.7 214.4112 
L 1198.35 230.018112 
L 1203 244.8 
L 1207.65 258.50394 
L 1212.3 270.895454 
L 1216.95 281.762521 
L 1221.6 290.919201 
L 1226.25 298.208821 
L 1230.9 303.506654 
L 1235.55 306.722053 
L 1240.2 307.8 
L 1244.85 306.722053 
L 1249.5 303.506654 
L 1254.15 298.208821 
L 1258.8 290.919201 
L 1263.45 281.762521 
L 1268.1 270.895454 
L 1272.75 258.50394 
L 1277.4 244.8 
L 1282.05 230.018112 
L 1286.7 214.4112 
L 1296 181.8 
L 1300.65 165.3537 
L 1300.65 165.3537 
" clip-path="url(#pf807ac2c85)" style="fill: none; stroke: #1f77b4; stroke-width: 3; stroke-linecap: square"/>
   </g>
   <g id="patch_3">
    <path d="M 180 320.4 
L 180 43.2 
" style="fill: none; stroke: #000000; stroke-linejoin: miter; stroke-linecap: square"/>
   </g>
   <g id="patch_4">
    <path d="M 1296 320.4 
L 1296 43.2 
" style="fill: none; stroke: #000000; stroke-linejoin: miter; stroke-linecap: square"/>
   </g>
   <g id="patch_5">
    <path d="M 180 320.4 
L 1296 320.4 
" style="fill: none; stroke: #000000; stroke-linejoin: miter; stroke-linecap: square"/>
   </g>
   <g id="patch_6">
    <path d="M 180 43.2 
L 1296 43.2 
" style="fill: none; stroke: #000000; stroke-linejoin: miter; stroke-linecap: square"/>
   </g>
   <g id="text_12">
    <!-- 1 kHz sine wave -->
    <g transform="translate(659.051451 37.2)scale(0.25 -0.25)">
     <defs>
      <path id="CMSS17-31" d="M 1818 4288 
L 1696 4288 
C 1350 3949 947 3902 538 3891 
L 538 3520 
C 723 3526 1024 3539 1325 3673 
L 1325 371 
L 570 371 
L 570 0 
L 2573 0 
L 2573 371 
L 1818 371 
L 1818 4288 
z
" transform="scale(0.015625)"/>
      <path id="CMSS17-6b" d="M 1696 1686 
L 2688 2735 
L 2074 2735 
L 954 1552 
L 954 4416 
L 480 4416 
L 480 0 
L 947 0 
L 947 891 
L 1376 1342 
L 2278 0 
L 2822 0 
L 1696 1686 
z
" transform="scale(0.015625)"/>
      <path id="CMSS17-48" d="M 3674 4416 
L 3136 4416 
L 3136 2496 
L 1101 2496 
L 1101 4416 
L 563 4416 
L 563 0 
L 1101 0 
L 1101 2105 
L 3136 2105 
L 3136 0 
L 3674 0 
L 3674 4416 
z
" transform="scale(0.015625)"/>
      <path id="CMSS17-7a" d="M 2400 2502 
L 2400 2752 
L 250 2752 
L 250 2367 
L 1069 2367 
C 1146 2367 1222 2374 1299 2374 
L 1747 2374 
L 166 262 
L 166 0 
L 2419 0 
L 2419 396 
L 1549 396 
C 1472 396 1395 390 1318 390 
L 826 390 
L 2400 2502 
z
" transform="scale(0.015625)"/>
      <path id="CMSS17-6e" d="M 2618 1878 
C 2618 2283 2522 2816 1798 2816 
C 1389 2816 1120 2604 941 2386 
L 941 2783 
L 474 2783 
L 474 0 
L 960 0 
L 960 1556 
C 960 1962 1114 2425 1549 2425 
C 2112 2425 2131 2045 2131 1826 
L 2131 0 
L 2618 0 
L 2618 1878 
z
" transform="scale(0.015625)"/>
      <path id="CMSS17-77" d="M 4013 2752 
L 3526 2752 
L 3187 1600 
C 3117 1356 2918 684 2893 371 
L 2886 371 
C 2874 563 2765 1024 2586 1632 
L 2259 2752 
L 1818 2752 
L 1498 1657 
C 1338 1100 1216 627 1203 371 
L 1197 371 
C 1171 748 909 1632 870 1772 
L 582 2752 
L 83 2752 
L 915 0 
L 1402 0 
C 1734 1100 1990 1952 2010 2380 
C 2022 2169 2131 1715 2195 1491 
L 2618 0 
L 3181 0 
L 4013 2752 
z
" transform="scale(0.015625)"/>
      <path id="CMSS17-76" d="M 2675 2752 
L 2176 2752 
L 1747 1555 
C 1613 1164 1421 627 1389 352 
L 1382 352 
C 1370 467 1318 633 1286 748 
C 1248 889 1197 1056 1158 1171 
L 595 2752 
L 83 2752 
L 1094 0 
L 1664 0 
L 2675 2752 
z
" transform="scale(0.015625)"/>
     </defs>
     <use xlink:href="#CMSS17-31" transform="scale(0.996264)"/>
     <use xlink:href="#CMSS17-6b" transform="translate(78.072736 0)scale(0.996264)"/>
     <use xlink:href="#CMSS17-48" transform="translate(123.675225 0)scale(0.996264)"/>
     <use xlink:href="#CMSS17-7a" transform="translate(189.736745 0)scale(0.996264)"/>
     <use xlink:href="#CMSS17-73" transform="translate(261.643729 0)scale(0.996264)"/>
     <use xlink:href="#CMSS17-69" transform="translate(297.557271 0)scale(0.996264)"/>
     <use xlink:href="#CMSS17-6e" transform="translate(319.737994 0)scale(0.996264)"/>
     <use xlink:href="#CMSS17-65" transform="translate(367.942937 0)scale(0.996264)"/>
     <use xlink:href="#CMSS17-77" transform="translate(440.810872 0)scale(0.996264)"/>
     <use xlink:href="#CMSS17-61" transform="translate(502.027963 0)scale(0.996264)"/>
     <use xlink:href="#CMSS17-76" transform="translate(546.949884 0)scale(0.996264)"/>
     <use xlink:href="#CMSS17-65" transform="translate(589.950026 0)scale(0.996264)"/>
    </g>
   </g>
  </g>
 </g>
 <defs>
  <clipPath id="pf807ac2c85">
   <rect x="180" y="43.2" width="1116" height="277.2"/>
  </clipPath>
 </defs>
</svg>
