<?xml version="1.0" encoding="utf-8" standalone="no"?>
<!DOCTYPE svg PUBLIC "-//W3C//DTD SVG 1.1//EN"
  "http://www.w3.org/Graphics/SVG/1.1/DTD/svg11.dtd">
<svg xmlns:xlink="http://www.w3.org/1999/xlink" width="1440pt" height="360pt" viewBox="0 0 1440 360" xmlns="http://www.w3.org/2000/svg" version="1.1">
 <metadata>
  <rdf:RDF xmlns:dc="http://purl.org/dc/elements/1.1/" xmlns:cc="http://creativecommons.org/ns#" xmlns:rdf="http://www.w3.org/1999/02/22-rdf-syntax-ns#">
   <cc:Work>
    <dc:type rdf:resource="http://purl.org/dc/dcmitype/StillImage"/>
    <dc:date>2023-01-26T17:52:49.018580</dc:date>
    <dc:format>image/svg+xml</dc:format>
    <dc:creator>
     <cc:Agent>
      <dc:title>Matplotlib v3.5.2, https://matplotlib.org/</dc:title>
     </cc:Agent>
    </dc:creator>
   </cc:Work>
  </rdf:RDF>
 </metadata>
 <defs>
  <style type="text/css">*{stroke-linejoin: round; stroke-linecap: butt}</style>
 </defs>
 <g id="figure_1">
  <g id="patch_1">
   <path d="M 0 360 
L 1440 360 
L 1440 0 
L 0 0 
z
" style="fill: #ffffff"/>
  </g>
  <g id="axes_1">
   <g id="patch_2">
    <path d="M 180 320.4 
L 1296 320.4 
L 1296 43.2 
L 180 43.2 
z
" style="fill: #ffffff"/>
   </g>
   <g id="matplotlib.axis_1">
    <g id="xtick_1">
     <g id="line2d_1">
      <defs>
       <path id="m8ed80b9a7b" d="M 0 0 
L 0 -5 
" style="stroke: #000000; stroke-width: 2"/>
      </defs>
      <g>
       <use xlink:href="#m8ed80b9a7b" x="230.722159" y="320.4" style="stroke: #000000; stroke-width: 2"/>
      </g>
     </g>
     <g id="text_1">
      <!-- $\mathdefault{0.00}$ -->
      <g transform="translate(206.096868 344.655495)scale(0.3 -0.3)">
       <defs>
        <path id="CMR17-30" d="M 2688 2038 
C 2688 2430 2682 3099 2413 3613 
C 2176 4063 1798 4224 1466 4224 
C 1158 4224 768 4082 525 3620 
C 269 3137 243 2539 243 2038 
C 243 1671 250 1112 448 623 
C 723 -39 1216 -128 1466 -128 
C 1760 -128 2208 -7 2470 604 
C 2662 1048 2688 1568 2688 2038 
z
M 1466 -26 
C 1056 -26 813 328 723 816 
C 653 1196 653 1749 653 2109 
C 653 2604 653 3015 736 3407 
C 858 3954 1216 4121 1466 4121 
C 1728 4121 2067 3947 2189 3420 
C 2272 3054 2278 2623 2278 2109 
C 2278 1691 2278 1176 2202 797 
C 2067 96 1690 -26 1466 -26 
z
" transform="scale(0.015625)"/>
        <path id="CMMI12-3a" d="M 1178 307 
C 1178 492 1024 620 870 620 
C 685 620 557 467 557 313 
C 557 128 710 0 864 0 
C 1050 0 1178 153 1178 307 
z
" transform="scale(0.015625)"/>
       </defs>
       <use xlink:href="#CMR17-30" transform="scale(0.996264)"/>
       <use xlink:href="#CMMI12-3a" transform="translate(45.690477 0)scale(0.996264)"/>
       <use xlink:href="#CMR17-30" transform="translate(72.787654 0)scale(0.996264)"/>
       <use xlink:href="#CMR17-30" transform="translate(118.478131 0)scale(0.996264)"/>
      </g>
     </g>
    </g>
    <g id="xtick_2">
     <g id="line2d_2">
      <g>
       <use xlink:href="#m8ed80b9a7b" x="358.563068" y="320.4" style="stroke: #000000; stroke-width: 2"/>
      </g>
     </g>
     <g id="text_2">
      <!-- $\mathdefault{0.25}$ -->
      <g transform="translate(333.937777 344.655495)scale(0.3 -0.3)">
       <defs>
        <path id="CMR17-32" d="M 2669 990 
L 2554 990 
C 2490 537 2438 460 2413 422 
C 2381 371 1920 371 1830 371 
L 602 371 
C 832 620 1280 1073 1824 1596 
C 2214 1966 2669 2400 2669 3033 
C 2669 3788 2067 4224 1395 4224 
C 691 4224 262 3603 262 3027 
C 262 2777 448 2745 525 2745 
C 589 2745 781 2783 781 3007 
C 781 3206 614 3264 525 3264 
C 486 3264 448 3257 422 3244 
C 544 3788 915 4057 1306 4057 
C 1862 4057 2227 3616 2227 3033 
C 2227 2477 1901 1998 1536 1583 
L 262 147 
L 262 0 
L 2515 0 
L 2669 990 
z
" transform="scale(0.015625)"/>
        <path id="CMR17-35" d="M 730 3750 
C 794 3724 1056 3641 1325 3641 
C 1920 3641 2246 3961 2432 4140 
C 2432 4191 2432 4224 2394 4224 
C 2387 4224 2374 4224 2323 4198 
C 2099 4102 1837 4032 1517 4032 
C 1325 4032 1037 4055 723 4191 
C 653 4224 640 4224 634 4224 
C 602 4224 595 4217 595 4090 
L 595 2231 
C 595 2113 595 2080 659 2080 
C 691 2080 704 2093 736 2139 
C 941 2435 1222 2560 1542 2560 
C 1766 2560 2246 2415 2246 1293 
C 2246 1087 2246 716 2054 422 
C 1894 159 1645 25 1370 25 
C 947 25 518 319 403 812 
C 429 806 480 793 506 793 
C 589 793 749 838 749 1036 
C 749 1209 627 1280 506 1280 
C 358 1280 262 1190 262 1011 
C 262 454 704 -128 1382 -128 
C 2042 -128 2669 441 2669 1267 
C 2669 2054 2170 2662 1549 2662 
C 1222 2662 947 2540 730 2304 
L 730 3750 
z
" transform="scale(0.015625)"/>
       </defs>
       <use xlink:href="#CMR17-30" transform="scale(0.996264)"/>
       <use xlink:href="#CMMI12-3a" transform="translate(45.690477 0)scale(0.996264)"/>
       <use xlink:href="#CMR17-32" transform="translate(72.787654 0)scale(0.996264)"/>
       <use xlink:href="#CMR17-35" transform="translate(118.478131 0)scale(0.996264)"/>
      </g>
     </g>
    </g>
    <g id="xtick_3">
     <g id="line2d_3">
      <g>
       <use xlink:href="#m8ed80b9a7b" x="486.403977" y="320.4" style="stroke: #000000; stroke-width: 2"/>
      </g>
     </g>
     <g id="text_3">
      <!-- $\mathdefault{0.50}$ -->
      <g transform="translate(461.778686 344.655495)scale(0.3 -0.3)">
       <use xlink:href="#CMR17-30" transform="scale(0.996264)"/>
       <use xlink:href="#CMMI12-3a" transform="translate(45.690477 0)scale(0.996264)"/>
       <use xlink:href="#CMR17-35" transform="translate(72.787654 0)scale(0.996264)"/>
       <use xlink:href="#CMR17-30" transform="translate(118.478131 0)scale(0.996264)"/>
      </g>
     </g>
    </g>
    <g id="xtick_4">
     <g id="line2d_4">
      <g>
       <use xlink:href="#m8ed80b9a7b" x="614.244886" y="320.4" style="stroke: #000000; stroke-width: 2"/>
      </g>
     </g>
     <g id="text_4">
      <!-- $\mathdefault{0.75}$ -->
      <g transform="translate(589.619595 344.655495)scale(0.3 -0.3)">
       <defs>
        <path id="CMR17-37" d="M 2886 3955 
L 2886 4096 
L 1382 4096 
C 634 4096 621 4166 595 4288 
L 480 4288 
L 294 3104 
L 410 3104 
C 429 3226 474 3552 550 3673 
C 589 3724 1062 3724 1171 3724 
L 2579 3724 
L 1869 2670 
C 1395 1961 1069 1003 1069 166 
C 1069 89 1069 -128 1299 -128 
C 1530 -128 1530 89 1530 172 
L 1530 466 
C 1530 1514 1709 2204 2003 2644 
L 2886 3955 
z
" transform="scale(0.015625)"/>
       </defs>
       <use xlink:href="#CMR17-30" transform="scale(0.996264)"/>
       <use xlink:href="#CMMI12-3a" transform="translate(45.690477 0)scale(0.996264)"/>
       <use xlink:href="#CMR17-37" transform="translate(72.787654 0)scale(0.996264)"/>
       <use xlink:href="#CMR17-35" transform="translate(118.478131 0)scale(0.996264)"/>
      </g>
     </g>
    </g>
    <g id="xtick_5">
     <g id="line2d_5">
      <g>
       <use xlink:href="#m8ed80b9a7b" x="742.085795" y="320.4" style="stroke: #000000; stroke-width: 2"/>
      </g>
     </g>
     <g id="text_5">
      <!-- $\mathdefault{1.00}$ -->
      <g transform="translate(717.460504 344.655495)scale(0.3 -0.3)">
       <defs>
        <path id="CMR17-31" d="M 1702 4083 
C 1702 4217 1696 4224 1606 4224 
C 1357 3927 979 3833 621 3820 
C 602 3820 570 3820 563 3808 
C 557 3795 557 3782 557 3648 
C 755 3648 1088 3686 1344 3839 
L 1344 467 
C 1344 243 1331 166 781 166 
L 589 166 
L 589 0 
C 896 6 1216 12 1523 12 
C 1830 12 2150 6 2458 0 
L 2458 166 
L 2266 166 
C 1715 166 1702 236 1702 467 
L 1702 4083 
z
" transform="scale(0.015625)"/>
       </defs>
       <use xlink:href="#CMR17-31" transform="scale(0.996264)"/>
       <use xlink:href="#CMMI12-3a" transform="translate(45.690477 0)scale(0.996264)"/>
       <use xlink:href="#CMR17-30" transform="translate(72.787654 0)scale(0.996264)"/>
       <use xlink:href="#CMR17-30" transform="translate(118.478131 0)scale(0.996264)"/>
      </g>
     </g>
    </g>
    <g id="xtick_6">
     <g id="line2d_6">
      <g>
       <use xlink:href="#m8ed80b9a7b" x="869.926705" y="320.4" style="stroke: #000000; stroke-width: 2"/>
      </g>
     </g>
     <g id="text_6">
      <!-- $\mathdefault{1.25}$ -->
      <g transform="translate(845.301413 344.655495)scale(0.3 -0.3)">
       <use xlink:href="#CMR17-31" transform="scale(0.996264)"/>
       <use xlink:href="#CMMI12-3a" transform="translate(45.690477 0)scale(0.996264)"/>
       <use xlink:href="#CMR17-32" transform="translate(72.787654 0)scale(0.996264)"/>
       <use xlink:href="#CMR17-35" transform="translate(118.478131 0)scale(0.996264)"/>
      </g>
     </g>
    </g>
    <g id="xtick_7">
     <g id="line2d_7">
      <g>
       <use xlink:href="#m8ed80b9a7b" x="997.767614" y="320.4" style="stroke: #000000; stroke-width: 2"/>
      </g>
     </g>
     <g id="text_7">
      <!-- $\mathdefault{1.50}$ -->
      <g transform="translate(973.142322 344.655495)scale(0.3 -0.3)">
       <use xlink:href="#CMR17-31" transform="scale(0.996264)"/>
       <use xlink:href="#CMMI12-3a" transform="translate(45.690477 0)scale(0.996264)"/>
       <use xlink:href="#CMR17-35" transform="translate(72.787654 0)scale(0.996264)"/>
       <use xlink:href="#CMR17-30" transform="translate(118.478131 0)scale(0.996264)"/>
      </g>
     </g>
    </g>
    <g id="xtick_8">
     <g id="line2d_8">
      <g>
       <use xlink:href="#m8ed80b9a7b" x="1125.608523" y="320.4" style="stroke: #000000; stroke-width: 2"/>
      </g>
     </g>
     <g id="text_8">
      <!-- $\mathdefault{1.75}$ -->
      <g transform="translate(1100.983231 344.655495)scale(0.3 -0.3)">
       <use xlink:href="#CMR17-31" transform="scale(0.996264)"/>
       <use xlink:href="#CMMI12-3a" transform="translate(45.690477 0)scale(0.996264)"/>
       <use xlink:href="#CMR17-37" transform="translate(72.787654 0)scale(0.996264)"/>
       <use xlink:href="#CMR17-35" transform="translate(118.478131 0)scale(0.996264)"/>
      </g>
     </g>
    </g>
    <g id="xtick_9">
     <g id="line2d_9">
      <g>
       <use xlink:href="#m8ed80b9a7b" x="1253.449432" y="320.4" style="stroke: #000000; stroke-width: 2"/>
      </g>
     </g>
     <g id="text_9">
      <!-- $\mathdefault{2.00}$ -->
      <g transform="translate(1228.824141 344.655495)scale(0.3 -0.3)">
       <use xlink:href="#CMR17-32" transform="scale(0.996264)"/>
       <use xlink:href="#CMMI12-3a" transform="translate(45.690477 0)scale(0.996264)"/>
       <use xlink:href="#CMR17-30" transform="translate(72.787654 0)scale(0.996264)"/>
       <use xlink:href="#CMR17-30" transform="translate(118.478131 0)scale(0.996264)"/>
      </g>
     </g>
    </g>
   </g>
   <g id="matplotlib.axis_2">
    <g id="ytick_1">
     <g id="line2d_10">
      <defs>
       <path id="m7df2cea837" d="M 0 0 
L 5 0 
" style="stroke: #000000; stroke-width: 2"/>
      </defs>
      <g>
       <use xlink:href="#m7df2cea837" x="180" y="307.8" style="stroke: #000000; stroke-width: 2"/>
      </g>
     </g>
     <g id="text_10">
      <!-- $\mathdefault{0}$ -->
      <g transform="translate(162.792857 318.177748)scale(0.3 -0.3)">
       <use xlink:href="#CMR17-30" transform="scale(0.996264)"/>
      </g>
     </g>
    </g>
    <g id="ytick_2">
     <g id="line2d_11">
      <g>
       <use xlink:href="#m7df2cea837" x="180" y="237.78055" style="stroke: #000000; stroke-width: 2"/>
      </g>
     </g>
     <g id="text_11">
      <!-- $\mathdefault{1000}$ -->
      <g transform="translate(121.671427 248.158298)scale(0.3 -0.3)">
       <use xlink:href="#CMR17-31" transform="scale(0.996264)"/>
       <use xlink:href="#CMR17-30" transform="translate(45.690477 0)scale(0.996264)"/>
       <use xlink:href="#CMR17-30" transform="translate(91.380954 0)scale(0.996264)"/>
       <use xlink:href="#CMR17-30" transform="translate(137.071431 0)scale(0.996264)"/>
      </g>
     </g>
    </g>
    <g id="ytick_3">
     <g id="line2d_12">
      <g>
       <use xlink:href="#m7df2cea837" x="180" y="167.7611" style="stroke: #000000; stroke-width: 2"/>
      </g>
     </g>
     <g id="text_12">
      <!-- $\mathdefault{2000}$ -->
      <g transform="translate(121.671427 178.138848)scale(0.3 -0.3)">
       <use xlink:href="#CMR17-32" transform="scale(0.996264)"/>
       <use xlink:href="#CMR17-30" transform="translate(45.690477 0)scale(0.996264)"/>
       <use xlink:href="#CMR17-30" transform="translate(91.380954 0)scale(0.996264)"/>
       <use xlink:href="#CMR17-30" transform="translate(137.071431 0)scale(0.996264)"/>
      </g>
     </g>
    </g>
    <g id="ytick_4">
     <g id="line2d_13">
      <g>
       <use xlink:href="#m7df2cea837" x="180" y="97.74165" style="stroke: #000000; stroke-width: 2"/>
      </g>
     </g>
     <g id="text_13">
      <!-- $\mathdefault{3000}$ -->
      <g transform="translate(121.671427 108.119398)scale(0.3 -0.3)">
       <defs>
        <path id="CMR17-33" d="M 1414 2176 
C 1984 2176 2234 1673 2234 1094 
C 2234 322 1824 25 1453 25 
C 1114 25 563 193 390 691 
C 422 678 454 678 486 678 
C 640 678 755 780 755 947 
C 755 1132 614 1216 486 1216 
C 378 1216 211 1164 211 927 
C 211 335 787 -128 1466 -128 
C 2176 -128 2720 432 2720 1087 
C 2720 1718 2208 2176 1600 2246 
C 2086 2347 2554 2776 2554 3353 
C 2554 3856 2048 4224 1472 4224 
C 890 4224 378 3862 378 3347 
C 378 3123 544 3084 627 3084 
C 762 3084 877 3167 877 3334 
C 877 3500 762 3584 627 3584 
C 602 3584 570 3584 544 3571 
C 730 3999 1235 4076 1459 4076 
C 1683 4076 2106 3966 2106 3347 
C 2106 3167 2080 2851 1862 2574 
C 1670 2329 1453 2316 1242 2297 
C 1210 2297 1062 2284 1037 2284 
C 992 2278 966 2272 966 2227 
C 966 2182 973 2176 1101 2176 
L 1414 2176 
z
" transform="scale(0.015625)"/>
       </defs>
       <use xlink:href="#CMR17-33" transform="scale(0.996264)"/>
       <use xlink:href="#CMR17-30" transform="translate(45.690477 0)scale(0.996264)"/>
       <use xlink:href="#CMR17-30" transform="translate(91.380954 0)scale(0.996264)"/>
       <use xlink:href="#CMR17-30" transform="translate(137.071431 0)scale(0.996264)"/>
      </g>
     </g>
    </g>
   </g>
   <g id="line2d_14">
    <path d="M 230.727273 307.589942 
L 231.238636 307.8 
L 231.75 307.8 
L 232.261364 307.589942 
L 232.772727 307.8 
L 309.477273 307.8 
L 309.988636 307.379883 
L 310.5 307.8 
L 334.022727 307.8 
L 334.534091 307.659961 
L 335.045455 307.8 
L 337.602273 307.8 
L 338.113636 307.029786 
L 338.625 304.369047 
L 339.136364 307.8 
L 339.647727 307.729981 
L 340.670455 307.8 
L 345.784091 307.729981 
L 346.295455 303.388775 
L 346.806818 305.839455 
L 347.318182 307.729981 
L 347.829545 307.519922 
L 348.340909 307.519922 
L 348.852273 307.729981 
L 349.363636 307.589942 
L 349.875 307.8 
L 350.386364 306.399611 
L 350.897727 307.519922 
L 351.920455 307.8 
L 378 307.729981 
L 378.511364 300.517977 
L 379.022727 307.8 
L 379.534091 307.8 
L 380.045455 138.56299 
L 380.556818 61.891692 
L 381.068182 59.441011 
L 381.579545 84.998111 
L 382.602273 305.839455 
L 383.113636 307.8 
L 383.625 307.589942 
L 384.136364 306.329592 
L 384.647727 307.659961 
L 385.159091 305.979494 
L 385.670455 306.53965 
L 386.181818 306.399611 
L 387.204545 307.449903 
L 387.715909 307.8 
L 388.738636 307.8 
L 389.25 300.447958 
L 389.761364 304.929203 
L 390.272727 305.139261 
L 390.784091 307.659961 
L 391.295455 307.8 
L 391.806818 307.659961 
L 392.318182 307.8 
L 394.363636 307.8 
L 394.875 305.069241 
L 395.386364 307.8 
L 395.897727 307.8 
L 396.409091 306.679689 
L 396.920455 307.659961 
L 397.431818 307.8 
L 405.102273 307.8 
L 405.613636 307.659961 
L 406.636364 306.819728 
L 407.147727 307.589942 
L 407.659091 307.8 
L 408.170455 307.8 
L 408.681818 307.659961 
L 409.193182 307.8 
L 409.704545 307.449903 
L 410.215909 307.729981 
L 411.238636 307.8 
L 412.261364 307.8 
L 412.772727 307.589942 
L 413.284091 307.589942 
L 413.795455 307.8 
L 418.909091 307.8 
L 419.420455 307.519922 
L 419.931818 307.8 
L 433.738636 307.8 
L 434.25 307.239844 
L 434.761364 307.8 
L 435.272727 307.8 
L 435.784091 307.659961 
L 436.295455 306.959767 
L 437.318182 302.408502 
L 437.829545 306.749708 
L 438.340909 307.519922 
L 438.852273 307.8 
L 439.875 307.729981 
L 440.897727 307.8 
L 454.193182 307.8 
L 454.704545 307.659961 
L 455.215909 307.8 
L 464.420455 307.729981 
L 464.931818 304.299028 
L 465.443182 307.8 
L 469.534091 307.8 
L 470.045455 306.53965 
L 470.556818 306.259572 
L 471.068182 307.729981 
L 471.579545 307.449903 
L 472.090909 307.729981 
L 475.159091 307.8 
L 475.670455 306.259572 
L 476.181818 307.8 
L 495.102273 307.8 
L 495.613636 307.589942 
L 496.125 307.8 
L 505.840909 307.8 
L 506.352273 304.299028 
L 506.863636 307.8 
L 540.102273 307.8 
L 540.613636 307.659961 
L 541.125 307.8 
L 547.261364 307.8 
L 547.772727 307.519922 
L 548.284091 307.8 
L 595.329545 307.729981 
L 595.840909 307.309864 
L 596.352273 307.8 
L 597.886364 307.8 
L 598.397727 307.519922 
L 598.909091 307.8 
L 599.420455 307.519922 
L 599.931818 307.8 
L 635.727273 307.8 
L 636.238636 250.874187 
L 636.75 307.8 
L 637.261364 307.8 
L 637.772727 128.060072 
L 638.284091 61.331537 
L 638.795455 59.160934 
L 639.306818 102.713031 
L 639.818182 247.793331 
L 640.329545 270.129536 
L 640.840909 306.189553 
L 641.352273 307.589942 
L 641.863636 307.589942 
L 642.375 307.8 
L 642.886364 307.729981 
L 643.909091 307.8 
L 645.443182 307.729981 
L 646.465909 291.835565 
L 646.977273 301.778327 
L 647.488636 307.589942 
L 648 307.8 
L 648.511364 307.729981 
L 649.022727 304.229008 
L 649.534091 307.8 
L 650.045455 306.679689 
L 650.556818 306.399611 
L 651.068182 306.679689 
L 651.579545 307.659961 
L 652.090909 307.8 
L 653.113636 307.8 
L 653.625 300.728036 
L 654.136364 306.609669 
L 654.647727 307.659961 
L 655.159091 307.659961 
L 655.670455 307.8 
L 656.693182 307.8 
L 657.204545 307.239844 
L 657.715909 307.659961 
L 658.227273 307.8 
L 659.761364 307.8 
L 660.272727 306.889747 
L 660.784091 299.747763 
L 661.295455 306.819728 
L 661.806818 307.8 
L 664.875 307.8 
L 665.386364 307.029786 
L 665.897727 307.8 
L 666.920455 307.8 
L 667.431818 305.2793 
L 667.943182 298.767491 
L 668.454545 306.749708 
L 668.965909 307.8 
L 670.5 307.8 
L 671.011364 307.239844 
L 671.522727 307.8 
L 674.079545 307.8 
L 674.590909 307.659961 
L 675.102273 307.8 
L 691.465909 307.8 
L 691.977273 307.659961 
L 692.488636 307.8 
L 697.090909 307.8 
L 697.602273 307.239844 
L 698.113636 307.8 
L 698.625 304.439066 
L 699.136364 307.8 
L 704.761364 307.8 
L 705.272727 305.2793 
L 705.784091 307.8 
L 709.363636 307.729981 
L 709.875 307.659961 
L 710.386364 307.8 
L 714.988636 307.8 
L 716.011364 305.979494 
L 716.522727 307.029786 
L 717.545455 307.8 
L 718.056818 307.659961 
L 718.568182 307.8 
L 728.284091 307.8 
L 728.795455 307.449903 
L 729.306818 304.999222 
L 730.329545 307.8 
L 737.488636 307.8 
L 738 307.379883 
L 738.511364 307.729981 
L 739.534091 307.8 
L 763.568182 307.8 
L 764.079545 307.659961 
L 764.590909 307.8 
L 774.818182 307.8 
L 775.329545 307.519922 
L 775.840909 307.8 
L 776.863636 307.8 
L 777.375 307.659961 
L 777.886364 307.8 
L 795.784091 307.8 
L 796.295455 306.819728 
L 796.806818 307.8 
L 823.397727 307.8 
L 823.909091 307.379883 
L 824.420455 307.729981 
L 825.443182 307.8 
L 829.534091 307.8 
L 830.045455 307.659961 
L 830.556818 307.8 
L 873.511364 307.8 
L 874.022727 307.379883 
L 874.534091 307.8 
L 876.579545 307.8 
L 877.090909 307.519922 
L 877.602273 307.8 
L 893.454545 307.8 
L 893.965909 286.514087 
L 894.477273 307.8 
L 894.988636 307.8 
L 895.5 166.920867 
L 896.011364 59.441011 
L 896.522727 61.261517 
L 897.034091 67.003112 
L 897.545455 202.280689 
L 898.056818 269.289303 
L 898.568182 260.956988 
L 899.079545 306.889747 
L 899.590909 307.729981 
L 900.102273 305.069241 
L 900.613636 267.678855 
L 901.125 302.68858 
L 901.636364 282.522979 
L 902.147727 307.519922 
L 902.659091 307.589942 
L 903.170455 307.8 
L 914.420455 307.8 
L 914.931818 307.169825 
L 915.443182 307.029786 
L 915.954545 307.8 
L 916.465909 307.659961 
L 916.977273 307.8 
L 923.113636 307.8 
L 923.625 307.099806 
L 924.647727 307.589942 
L 925.159091 307.8 
L 928.738636 307.8 
L 929.25 304.299028 
L 929.761364 307.8 
L 946.125 307.8 
L 946.636364 307.659961 
L 947.147727 307.8 
L 997.261364 307.8 
L 997.772727 307.659961 
L 998.284091 307.8 
L 1002.375 307.8 
L 1002.886364 307.659961 
L 1003.397727 297.857238 
L 1003.909091 307.8 
L 1015.670455 307.8 
L 1016.181818 307.449903 
L 1016.693182 307.309864 
L 1017.204545 307.8 
L 1020.272727 307.8 
L 1020.784091 307.659961 
L 1021.295455 307.8 
L 1027.943182 307.8 
L 1028.454545 307.519922 
L 1028.965909 307.8 
L 1051.465909 307.8 
L 1051.977273 307.379883 
L 1052.488636 307.659961 
L 1053 307.8 
L 1062.204545 307.8 
L 1062.715909 307.379883 
L 1063.227273 307.8 
L 1151.181818 307.8 
L 1151.693182 271.039789 
L 1152.204545 307.8 
L 1152.715909 307.659961 
L 1153.738636 63.152042 
L 1154.25 58.880856 
L 1154.761364 74.775271 
L 1155.272727 118.817505 
L 1155.784091 183.585496 
L 1156.295455 298.697472 
L 1156.806818 307.589942 
L 1157.318182 307.659961 
L 1157.829545 307.519922 
L 1158.340909 306.609669 
L 1158.852273 307.449903 
L 1159.363636 307.729981 
L 1159.875 306.46963 
L 1160.386364 307.8 
L 1161.920455 307.8 
L 1162.431818 304.01895 
L 1162.943182 307.8 
L 1164.988636 307.8 
L 1165.5 306.889747 
L 1166.011364 307.659961 
L 1166.522727 306.679689 
L 1167.034091 307.449903 
L 1167.545455 307.8 
L 1168.568182 307.8 
L 1169.079545 307.449903 
L 1169.590909 305.489358 
L 1170.102273 307.729981 
L 1182.886364 307.8 
L 1183.397727 306.609669 
L 1183.909091 307.029786 
L 1184.420455 307.8 
L 1185.954545 307.8 
L 1186.977273 307.309864 
L 1187.488636 307.8 
L 1206.409091 307.8 
L 1206.920455 307.659961 
L 1207.431818 307.8 
L 1211.522727 307.8 
L 1212.034091 307.659961 
L 1212.545455 307.8 
L 1213.568182 307.8 
L 1214.079545 303.318755 
L 1214.590909 306.53965 
L 1215.102273 307.8 
L 1222.261364 307.8 
L 1222.772727 307.659961 
L 1223.284091 307.659961 
L 1223.795455 307.8 
L 1237.602273 307.8 
L 1238.113636 307.589942 
L 1239.136364 307.8 
L 1244.761364 307.8 
L 1245.272727 307.239844 
L 1245.272727 307.239844 
" clip-path="url(#p9e278beb5e)" style="fill: none; stroke: #008000; stroke-linecap: square"/>
   </g>
   <g id="line2d_15">
    <path d="M 232.992614 307.729981 
L 234.015341 307.8 
L 345.492614 307.8 
L 346.003977 285.743873 
L 346.515341 307.8 
L 348.560795 307.8 
L 349.072159 307.659961 
L 349.583523 307.8 
L 359.810795 307.8 
L 360.322159 307.659961 
L 360.833523 307.8 
L 378.219886 307.8 
L 378.73125 198.429619 
L 379.242614 55.8 
L 379.753977 90.949764 
L 380.265341 306.329592 
L 380.776705 307.8 
L 438.560795 307.8 
L 439.072159 307.099806 
L 439.583523 307.8 
L 469.242614 307.8 
L 469.753977 303.038677 
L 470.265341 306.399611 
L 470.776705 307.8 
L 479.469886 307.8 
L 479.98125 307.379883 
L 480.492614 307.8 
L 487.140341 307.8 
L 487.651705 307.449903 
L 488.163068 307.8 
L 516.799432 307.8 
L 517.310795 307.659961 
L 517.822159 307.8 
L 603.219886 307.8 
L 603.73125 307.519922 
L 604.242614 307.8 
L 635.947159 307.8 
L 636.969886 58.3207 
L 637.48125 96.761378 
L 637.992614 307.379883 
L 638.503977 307.8 
L 639.015341 307.729981 
L 640.038068 307.8 
L 644.640341 307.8 
L 645.151705 307.309864 
L 645.663068 307.729981 
L 646.174432 307.519922 
L 646.685795 307.8 
L 648.219886 307.8 
L 648.73125 307.659961 
L 649.242614 307.8 
L 654.867614 307.8 
L 655.378977 307.659961 
L 655.890341 307.8 
L 665.094886 307.8 
L 665.60625 307.589942 
L 666.117614 307.8 
L 675.322159 307.8 
L 675.833523 307.659961 
L 676.344886 307.8 
L 696.288068 307.8 
L 696.799432 307.659961 
L 697.310795 307.8 
L 706.515341 307.8 
L 707.026705 306.819728 
L 707.538068 307.8 
L 737.197159 307.8 
L 737.708523 305.2793 
L 738.219886 307.729981 
L 739.242614 307.8 
L 799.583523 307.8 
L 800.094886 307.659961 
L 800.60625 307.8 
L 823.617614 307.8 
L 824.128977 304.649125 
L 824.640341 307.8 
L 885.492614 307.8 
L 886.003977 307.519922 
L 886.515341 307.8 
L 893.674432 307.729981 
L 894.185795 219.155376 
L 894.697159 60.351264 
L 895.208523 63.852237 
L 895.719886 303.038677 
L 896.23125 307.8 
L 902.367614 307.8 
L 902.878977 307.589942 
L 903.390341 307.8 
L 916.685795 307.8 
L 917.197159 307.659961 
L 917.708523 307.8 
L 922.822159 307.8 
L 923.333523 302.408502 
L 923.844886 307.8 
L 1005.663068 307.8 
L 1006.174432 307.379883 
L 1006.685795 307.8 
L 1015.890341 307.8 
L 1016.401705 304.999222 
L 1016.913068 307.8 
L 1060.890341 307.8 
L 1061.401705 307.379883 
L 1061.913068 307.8 
L 1139.640341 307.8 
L 1140.151705 307.309864 
L 1140.663068 307.8 
L 1151.401705 307.8 
L 1151.913068 212.433509 
L 1152.424432 60.91142 
L 1152.935795 57.200389 
L 1153.447159 295.266518 
L 1153.958523 307.659961 
L 1154.469886 307.8 
L 1159.583523 307.8 
L 1160.094886 307.519922 
L 1160.60625 307.8 
L 1221.969886 307.8 
L 1222.48125 305.419339 
L 1222.48125 305.419339 
" clip-path="url(#p9e278beb5e)" style="fill: none; stroke: #ff0000; stroke-linecap: square"/>
   </g>
   <g id="patch_3">
    <path d="M 180 320.4 
L 180 43.2 
" style="fill: none; stroke: #000000; stroke-linejoin: miter; stroke-linecap: square"/>
   </g>
   <g id="patch_4">
    <path d="M 1296 320.4 
L 1296 43.2 
" style="fill: none; stroke: #000000; stroke-linejoin: miter; stroke-linecap: square"/>
   </g>
   <g id="patch_5">
    <path d="M 180 320.4 
L 1296 320.4 
" style="fill: none; stroke: #000000; stroke-linejoin: miter; stroke-linecap: square"/>
   </g>
   <g id="patch_6">
    <path d="M 180 43.2 
L 1296 43.2 
" style="fill: none; stroke: #000000; stroke-linejoin: miter; stroke-linecap: square"/>
   </g>
  </g>
 </g>
 <defs>
  <clipPath id="p9e278beb5e">
   <rect x="180" y="43.2" width="1116" height="277.2"/>
  </clipPath>
 </defs>
</svg>
