<?xml version="1.0" encoding="utf-8" standalone="no"?>
<!DOCTYPE svg PUBLIC "-//W3C//DTD SVG 1.1//EN"
  "http://www.w3.org/Graphics/SVG/1.1/DTD/svg11.dtd">
<svg xmlns:xlink="http://www.w3.org/1999/xlink" width="288pt" height="288pt" viewBox="0 0 288 288" xmlns="http://www.w3.org/2000/svg" version="1.1">
 <metadata>
  <rdf:RDF xmlns:dc="http://purl.org/dc/elements/1.1/" xmlns:cc="http://creativecommons.org/ns#" xmlns:rdf="http://www.w3.org/1999/02/22-rdf-syntax-ns#">
   <cc:Work>
    <dc:type rdf:resource="http://purl.org/dc/dcmitype/StillImage"/>
    <dc:date>2023-01-26T18:11:23.639841</dc:date>
    <dc:format>image/svg+xml</dc:format>
    <dc:creator>
     <cc:Agent>
      <dc:title>Matplotlib v3.5.2, https://matplotlib.org/</dc:title>
     </cc:Agent>
    </dc:creator>
   </cc:Work>
  </rdf:RDF>
 </metadata>
 <defs>
  <style type="text/css">*{stroke-linejoin: round; stroke-linecap: butt}</style>
 </defs>
 <g id="figure_1">
  <g id="patch_1">
   <path d="M 0 288 
L 288 288 
L 288 0 
L 0 0 
z
" style="fill: #ffffff"/>
  </g>
  <g id="axes_1">
   <g id="patch_2">
    <path d="M 36 256.32 
L 259.2 256.32 
L 259.2 34.56 
L 36 34.56 
z
" style="fill: #ffffff"/>
   </g>
   <g id="matplotlib.axis_1">
    <g id="xtick_1">
     <g id="line2d_1">
      <defs>
       <path id="m1bda79a0b1" d="M 0 0 
L 0 3 
" style="stroke: #000000"/>
      </defs>
      <g>
       <use xlink:href="#m1bda79a0b1" x="36" y="256.32" style="stroke: #000000"/>
      </g>
     </g>
     <g id="text_1">
      <!-- 0.00 -->
      <g transform="translate(19.300781 274.217656)scale(0.15 -0.15)">
       <defs>
        <path id="DejaVuSans-30" d="M 2034 4250 
Q 1547 4250 1301 3770 
Q 1056 3291 1056 2328 
Q 1056 1369 1301 889 
Q 1547 409 2034 409 
Q 2525 409 2770 889 
Q 3016 1369 3016 2328 
Q 3016 3291 2770 3770 
Q 2525 4250 2034 4250 
z
M 2034 4750 
Q 2819 4750 3233 4129 
Q 3647 3509 3647 2328 
Q 3647 1150 3233 529 
Q 2819 -91 2034 -91 
Q 1250 -91 836 529 
Q 422 1150 422 2328 
Q 422 3509 836 4129 
Q 1250 4750 2034 4750 
z
" transform="scale(0.015625)"/>
        <path id="DejaVuSans-2e" d="M 684 794 
L 1344 794 
L 1344 0 
L 684 0 
L 684 794 
z
" transform="scale(0.015625)"/>
       </defs>
       <use xlink:href="#DejaVuSans-30"/>
       <use xlink:href="#DejaVuSans-2e" x="63.623047"/>
       <use xlink:href="#DejaVuSans-30" x="95.410156"/>
       <use xlink:href="#DejaVuSans-30" x="159.033203"/>
      </g>
     </g>
    </g>
    <g id="xtick_2">
     <g id="line2d_2">
      <g>
       <use xlink:href="#m1bda79a0b1" x="184.8" y="256.32" style="stroke: #000000"/>
      </g>
     </g>
     <g id="text_2">
      <!-- 0.01 -->
      <g transform="translate(168.100781 274.217656)scale(0.15 -0.15)">
       <defs>
        <path id="DejaVuSans-31" d="M 794 531 
L 1825 531 
L 1825 4091 
L 703 3866 
L 703 4441 
L 1819 4666 
L 2450 4666 
L 2450 531 
L 3481 531 
L 3481 0 
L 794 0 
L 794 531 
z
" transform="scale(0.015625)"/>
       </defs>
       <use xlink:href="#DejaVuSans-30"/>
       <use xlink:href="#DejaVuSans-2e" x="63.623047"/>
       <use xlink:href="#DejaVuSans-30" x="95.410156"/>
       <use xlink:href="#DejaVuSans-31" x="159.033203"/>
      </g>
     </g>
    </g>
    <g id="text_3">
     <!-- Time [s] -->
     <g transform="translate(117.106641 292.734844)scale(0.15 -0.15)">
      <defs>
       <path id="DejaVuSans-54" d="M -19 4666 
L 3928 4666 
L 3928 4134 
L 2272 4134 
L 2272 0 
L 1638 0 
L 1638 4134 
L -19 4134 
L -19 4666 
z
" transform="scale(0.015625)"/>
       <path id="DejaVuSans-69" d="M 603 3500 
L 1178 3500 
L 1178 0 
L 603 0 
L 603 3500 
z
M 603 4863 
L 1178 4863 
L 1178 4134 
L 603 4134 
L 603 4863 
z
" transform="scale(0.015625)"/>
       <path id="DejaVuSans-6d" d="M 3328 2828 
Q 3544 3216 3844 3400 
Q 4144 3584 4550 3584 
Q 5097 3584 5394 3201 
Q 5691 2819 5691 2113 
L 5691 0 
L 5113 0 
L 5113 2094 
Q 5113 2597 4934 2840 
Q 4756 3084 4391 3084 
Q 3944 3084 3684 2787 
Q 3425 2491 3425 1978 
L 3425 0 
L 2847 0 
L 2847 2094 
Q 2847 2600 2669 2842 
Q 2491 3084 2119 3084 
Q 1678 3084 1418 2786 
Q 1159 2488 1159 1978 
L 1159 0 
L 581 0 
L 581 3500 
L 1159 3500 
L 1159 2956 
Q 1356 3278 1631 3431 
Q 1906 3584 2284 3584 
Q 2666 3584 2933 3390 
Q 3200 3197 3328 2828 
z
" transform="scale(0.015625)"/>
       <path id="DejaVuSans-65" d="M 3597 1894 
L 3597 1613 
L 953 1613 
Q 991 1019 1311 708 
Q 1631 397 2203 397 
Q 2534 397 2845 478 
Q 3156 559 3463 722 
L 3463 178 
Q 3153 47 2828 -22 
Q 2503 -91 2169 -91 
Q 1331 -91 842 396 
Q 353 884 353 1716 
Q 353 2575 817 3079 
Q 1281 3584 2069 3584 
Q 2775 3584 3186 3129 
Q 3597 2675 3597 1894 
z
M 3022 2063 
Q 3016 2534 2758 2815 
Q 2500 3097 2075 3097 
Q 1594 3097 1305 2825 
Q 1016 2553 972 2059 
L 3022 2063 
z
" transform="scale(0.015625)"/>
       <path id="DejaVuSans-20" transform="scale(0.015625)"/>
       <path id="DejaVuSans-5b" d="M 550 4863 
L 1875 4863 
L 1875 4416 
L 1125 4416 
L 1125 -397 
L 1875 -397 
L 1875 -844 
L 550 -844 
L 550 4863 
z
" transform="scale(0.015625)"/>
       <path id="DejaVuSans-73" d="M 2834 3397 
L 2834 2853 
Q 2591 2978 2328 3040 
Q 2066 3103 1784 3103 
Q 1356 3103 1142 2972 
Q 928 2841 928 2578 
Q 928 2378 1081 2264 
Q 1234 2150 1697 2047 
L 1894 2003 
Q 2506 1872 2764 1633 
Q 3022 1394 3022 966 
Q 3022 478 2636 193 
Q 2250 -91 1575 -91 
Q 1294 -91 989 -36 
Q 684 19 347 128 
L 347 722 
Q 666 556 975 473 
Q 1284 391 1588 391 
Q 1994 391 2212 530 
Q 2431 669 2431 922 
Q 2431 1156 2273 1281 
Q 2116 1406 1581 1522 
L 1381 1569 
Q 847 1681 609 1914 
Q 372 2147 372 2553 
Q 372 3047 722 3315 
Q 1072 3584 1716 3584 
Q 2034 3584 2315 3537 
Q 2597 3491 2834 3397 
z
" transform="scale(0.015625)"/>
       <path id="DejaVuSans-5d" d="M 1947 4863 
L 1947 -844 
L 622 -844 
L 622 -397 
L 1369 -397 
L 1369 4416 
L 622 4416 
L 622 4863 
L 1947 4863 
z
" transform="scale(0.015625)"/>
      </defs>
      <use xlink:href="#DejaVuSans-54"/>
      <use xlink:href="#DejaVuSans-69" x="57.958984"/>
      <use xlink:href="#DejaVuSans-6d" x="85.742188"/>
      <use xlink:href="#DejaVuSans-65" x="183.154297"/>
      <use xlink:href="#DejaVuSans-20" x="244.677734"/>
      <use xlink:href="#DejaVuSans-5b" x="276.464844"/>
      <use xlink:href="#DejaVuSans-73" x="315.478516"/>
      <use xlink:href="#DejaVuSans-5d" x="367.578125"/>
     </g>
    </g>
   </g>
   <g id="matplotlib.axis_2">
    <g id="ytick_1">
     <g id="line2d_3">
      <defs>
       <path id="md7c5ab9b9e" d="M 0 0 
L -3 0 
" style="stroke: #000000"/>
      </defs>
      <g>
       <use xlink:href="#md7c5ab9b9e" x="36" y="163.680923" style="stroke: #000000"/>
      </g>
     </g>
     <g id="text_4">
      <!-- 20 -->
      <g transform="translate(10.4125 169.379751)scale(0.15 -0.15)">
       <defs>
        <path id="DejaVuSans-32" d="M 1228 531 
L 3431 531 
L 3431 0 
L 469 0 
L 469 531 
Q 828 903 1448 1529 
Q 2069 2156 2228 2338 
Q 2531 2678 2651 2914 
Q 2772 3150 2772 3378 
Q 2772 3750 2511 3984 
Q 2250 4219 1831 4219 
Q 1534 4219 1204 4116 
Q 875 4013 500 3803 
L 500 4441 
Q 881 4594 1212 4672 
Q 1544 4750 1819 4750 
Q 2544 4750 2975 4387 
Q 3406 4025 3406 3419 
Q 3406 3131 3298 2873 
Q 3191 2616 2906 2266 
Q 2828 2175 2409 1742 
Q 1991 1309 1228 531 
z
" transform="scale(0.015625)"/>
       </defs>
       <use xlink:href="#DejaVuSans-32"/>
       <use xlink:href="#DejaVuSans-30" x="63.623047"/>
      </g>
     </g>
    </g>
    <g id="ytick_2">
     <g id="line2d_4">
      <g>
       <use xlink:href="#md7c5ab9b9e" x="36" y="86.142462" style="stroke: #000000"/>
      </g>
     </g>
     <g id="text_5">
      <!-- 40 -->
      <g transform="translate(10.4125 91.84129)scale(0.15 -0.15)">
       <defs>
        <path id="DejaVuSans-34" d="M 2419 4116 
L 825 1625 
L 2419 1625 
L 2419 4116 
z
M 2253 4666 
L 3047 4666 
L 3047 1625 
L 3713 1625 
L 3713 1100 
L 3047 1100 
L 3047 0 
L 2419 0 
L 2419 1100 
L 313 1100 
L 313 1709 
L 2253 4666 
z
" transform="scale(0.015625)"/>
       </defs>
       <use xlink:href="#DejaVuSans-34"/>
       <use xlink:href="#DejaVuSans-30" x="63.623047"/>
      </g>
     </g>
    </g>
    <g id="text_6">
     <!-- Event count -->
     <g transform="translate(3.292969 190.469297)rotate(-90)scale(0.15 -0.15)">
      <defs>
       <path id="DejaVuSans-45" d="M 628 4666 
L 3578 4666 
L 3578 4134 
L 1259 4134 
L 1259 2753 
L 3481 2753 
L 3481 2222 
L 1259 2222 
L 1259 531 
L 3634 531 
L 3634 0 
L 628 0 
L 628 4666 
z
" transform="scale(0.015625)"/>
       <path id="DejaVuSans-76" d="M 191 3500 
L 800 3500 
L 1894 563 
L 2988 3500 
L 3597 3500 
L 2284 0 
L 1503 0 
L 191 3500 
z
" transform="scale(0.015625)"/>
       <path id="DejaVuSans-6e" d="M 3513 2113 
L 3513 0 
L 2938 0 
L 2938 2094 
Q 2938 2591 2744 2837 
Q 2550 3084 2163 3084 
Q 1697 3084 1428 2787 
Q 1159 2491 1159 1978 
L 1159 0 
L 581 0 
L 581 3500 
L 1159 3500 
L 1159 2956 
Q 1366 3272 1645 3428 
Q 1925 3584 2291 3584 
Q 2894 3584 3203 3211 
Q 3513 2838 3513 2113 
z
" transform="scale(0.015625)"/>
       <path id="DejaVuSans-74" d="M 1172 4494 
L 1172 3500 
L 2356 3500 
L 2356 3053 
L 1172 3053 
L 1172 1153 
Q 1172 725 1289 603 
Q 1406 481 1766 481 
L 2356 481 
L 2356 0 
L 1766 0 
Q 1100 0 847 248 
Q 594 497 594 1153 
L 594 3053 
L 172 3053 
L 172 3500 
L 594 3500 
L 594 4494 
L 1172 4494 
z
" transform="scale(0.015625)"/>
       <path id="DejaVuSans-63" d="M 3122 3366 
L 3122 2828 
Q 2878 2963 2633 3030 
Q 2388 3097 2138 3097 
Q 1578 3097 1268 2742 
Q 959 2388 959 1747 
Q 959 1106 1268 751 
Q 1578 397 2138 397 
Q 2388 397 2633 464 
Q 2878 531 3122 666 
L 3122 134 
Q 2881 22 2623 -34 
Q 2366 -91 2075 -91 
Q 1284 -91 818 406 
Q 353 903 353 1747 
Q 353 2603 823 3093 
Q 1294 3584 2113 3584 
Q 2378 3584 2631 3529 
Q 2884 3475 3122 3366 
z
" transform="scale(0.015625)"/>
       <path id="DejaVuSans-6f" d="M 1959 3097 
Q 1497 3097 1228 2736 
Q 959 2375 959 1747 
Q 959 1119 1226 758 
Q 1494 397 1959 397 
Q 2419 397 2687 759 
Q 2956 1122 2956 1747 
Q 2956 2369 2687 2733 
Q 2419 3097 1959 3097 
z
M 1959 3584 
Q 2709 3584 3137 3096 
Q 3566 2609 3566 1747 
Q 3566 888 3137 398 
Q 2709 -91 1959 -91 
Q 1206 -91 779 398 
Q 353 888 353 1747 
Q 353 2609 779 3096 
Q 1206 3584 1959 3584 
z
" transform="scale(0.015625)"/>
       <path id="DejaVuSans-75" d="M 544 1381 
L 544 3500 
L 1119 3500 
L 1119 1403 
Q 1119 906 1312 657 
Q 1506 409 1894 409 
Q 2359 409 2629 706 
Q 2900 1003 2900 1516 
L 2900 3500 
L 3475 3500 
L 3475 0 
L 2900 0 
L 2900 538 
Q 2691 219 2414 64 
Q 2138 -91 1772 -91 
Q 1169 -91 856 284 
Q 544 659 544 1381 
z
M 1991 3584 
L 1991 3584 
z
" transform="scale(0.015625)"/>
      </defs>
      <use xlink:href="#DejaVuSans-45"/>
      <use xlink:href="#DejaVuSans-76" x="63.183594"/>
      <use xlink:href="#DejaVuSans-65" x="122.363281"/>
      <use xlink:href="#DejaVuSans-6e" x="183.886719"/>
      <use xlink:href="#DejaVuSans-74" x="247.265625"/>
      <use xlink:href="#DejaVuSans-20" x="286.474609"/>
      <use xlink:href="#DejaVuSans-63" x="318.261719"/>
      <use xlink:href="#DejaVuSans-6f" x="373.242188"/>
      <use xlink:href="#DejaVuSans-75" x="434.423828"/>
      <use xlink:href="#DejaVuSans-6e" x="497.802734"/>
      <use xlink:href="#DejaVuSans-74" x="561.181641"/>
     </g>
    </g>
   </g>
   <g id="line2d_5">
    <path d="M 35.8512 246.24 
L 70.224 246.24 
L 70.3728 207.470769 
L 70.5216 211.347692 
L 70.6704 238.486154 
L 70.8192 234.609231 
L 70.968 238.486154 
L 71.1168 246.24 
L 71.5632 246.24 
L 71.712 222.978462 
L 71.8608 176.455385 
L 72.0096 168.701538 
L 72.3072 246.24 
L 72.456 242.363077 
L 72.6048 246.24 
L 72.7536 246.24 
L 72.9024 238.486154 
L 73.0512 211.347692 
L 73.2 145.44 
L 73.4976 246.24 
L 73.6464 219.101538 
L 73.944 246.24 
L 74.0928 246.24 
L 74.2416 219.101538 
L 74.3904 219.101538 
L 74.5392 164.824615 
L 74.688 222.978462 
L 74.8368 219.101538 
L 74.9856 188.086154 
L 75.1344 226.855385 
L 75.2832 234.609231 
L 75.5808 195.84 
L 75.7296 246.24 
L 75.8784 238.486154 
L 76.0272 246.24 
L 76.3248 246.24 
L 76.6224 129.932308 
L 76.7712 157.070769 
L 77.0688 246.24 
L 77.2176 238.486154 
L 77.5152 246.24 
L 77.8128 246.24 
L 77.9616 234.609231 
L 78.2592 246.24 
L 114.864 246.24 
L 115.0128 238.486154 
L 115.1616 246.24 
L 115.608 246.24 
L 115.7568 222.978462 
L 116.0544 246.24 
L 116.352 188.086154 
L 116.5008 246.24 
L 116.7984 195.84 
L 116.9472 129.932308 
L 117.2448 180.332308 
L 117.5424 95.04 
L 117.6912 114.424615 
L 117.84 160.947692 
L 117.9888 106.670769 
L 118.1376 129.932308 
L 118.2864 118.301538 
L 118.584 79.532308 
L 118.7328 122.178462 
L 118.8816 102.793846 
L 119.0304 110.547692 
L 119.1792 95.04 
L 119.328 149.316923 
L 119.6256 98.916923 
L 119.7744 118.301538 
L 119.9232 110.547692 
L 120.072 95.04 
L 120.2208 110.547692 
L 120.3696 160.947692 
L 120.5184 106.670769 
L 120.6672 122.178462 
L 120.816 114.424615 
L 121.1136 79.532308 
L 121.2624 102.793846 
L 121.4112 106.670769 
L 121.56 98.916923 
L 121.7088 102.793846 
L 121.8576 133.809231 
L 122.0064 98.916923 
L 122.1552 106.670769 
L 122.304 137.686154 
L 122.6016 98.916923 
L 122.7504 87.286154 
L 122.8992 149.316923 
L 123.048 60.147692 
L 123.1968 75.655385 
L 123.3456 137.686154 
L 123.4944 98.916923 
L 123.6432 102.793846 
L 123.792 95.04 
L 123.9408 114.424615 
L 124.0896 102.793846 
L 124.3872 145.44 
L 124.536 102.793846 
L 124.6848 114.424615 
L 124.8336 141.563077 
L 124.9824 98.916923 
L 125.1312 102.793846 
L 125.28 83.409231 
L 125.4288 122.178462 
L 125.5776 91.163077 
L 125.8752 141.563077 
L 126.1728 87.286154 
L 126.3216 102.793846 
L 126.6192 102.793846 
L 126.9168 133.809231 
L 127.2144 102.793846 
L 127.3632 133.809231 
L 127.512 60.147692 
L 127.8096 122.178462 
L 128.256 75.655385 
L 128.4048 141.563077 
L 128.7024 91.163077 
L 128.8512 118.301538 
L 129 102.793846 
L 129.1488 106.670769 
L 129.2976 164.824615 
L 129.744 95.04 
L 129.8928 133.809231 
L 130.1904 87.286154 
L 130.3392 118.301538 
L 130.488 91.163077 
L 130.7856 114.424615 
L 130.9344 114.424615 
L 131.0832 75.655385 
L 131.232 95.04 
L 131.3808 129.932308 
L 131.5296 122.178462 
L 131.6784 75.655385 
L 131.976 126.055385 
L 132.2736 98.916923 
L 132.4224 160.947692 
L 132.5712 106.670769 
L 132.72 106.670769 
L 132.8688 118.301538 
L 133.1664 87.286154 
L 133.3152 98.916923 
L 133.464 153.193846 
L 133.7616 67.901538 
L 133.9104 141.563077 
L 134.0592 126.055385 
L 134.208 98.916923 
L 134.5056 149.316923 
L 134.8032 83.409231 
L 134.952 126.055385 
L 135.1008 122.178462 
L 135.2496 114.424615 
L 135.3984 98.916923 
L 135.5472 122.178462 
L 135.696 52.393846 
L 135.9936 129.932308 
L 136.1424 87.286154 
L 136.44 118.301538 
L 136.5888 137.686154 
L 136.8864 87.286154 
L 137.0352 145.44 
L 137.3328 114.424615 
L 137.4816 110.547692 
L 137.6304 110.547692 
L 137.7792 102.793846 
L 137.928 102.793846 
L 138.0768 126.055385 
L 138.2256 95.04 
L 138.5232 122.178462 
L 138.672 157.070769 
L 138.8208 75.655385 
L 138.9696 106.670769 
L 139.1184 110.547692 
L 139.2672 79.532308 
L 139.416 91.163077 
L 139.5648 79.532308 
L 139.7136 106.670769 
L 139.8624 83.409231 
L 140.0112 95.04 
L 140.16 118.301538 
L 140.3088 87.286154 
L 140.6064 114.424615 
L 140.7552 106.670769 
L 140.904 91.163077 
L 141.0528 106.670769 
L 141.2016 102.793846 
L 141.3504 83.409231 
L 141.4992 79.532308 
L 141.648 137.686154 
L 141.7968 141.563077 
L 141.9456 102.793846 
L 142.0944 114.424615 
L 142.2432 153.193846 
L 142.5408 106.670769 
L 142.6896 126.055385 
L 142.8384 129.932308 
L 142.9872 110.547692 
L 143.136 110.547692 
L 143.2848 153.193846 
L 143.5824 106.670769 
L 143.88 153.193846 
L 144.0288 91.163077 
L 144.3264 145.44 
L 144.4752 79.532308 
L 144.624 71.778462 
L 144.9216 137.686154 
L 145.0704 106.670769 
L 145.2192 102.793846 
L 145.368 149.316923 
L 145.6656 106.670769 
L 145.8144 133.809231 
L 145.9632 118.301538 
L 146.112 56.270769 
L 146.2608 71.778462 
L 146.4096 141.563077 
L 146.7072 87.286154 
L 146.856 106.670769 
L 147.0048 102.793846 
L 147.1536 106.670769 
L 147.3024 118.301538 
L 147.4512 145.44 
L 147.7488 75.655385 
L 147.8976 126.055385 
L 148.0464 83.409231 
L 148.1952 87.286154 
L 148.344 106.670769 
L 148.4928 141.563077 
L 148.6416 79.532308 
L 148.7904 75.655385 
L 148.9392 122.178462 
L 149.088 79.532308 
L 149.2368 98.916923 
L 149.3856 153.193846 
L 149.5344 95.04 
L 149.6832 87.286154 
L 149.832 133.809231 
L 150.1296 98.916923 
L 150.2784 153.193846 
L 150.4272 95.04 
L 150.576 106.670769 
L 150.8736 83.409231 
L 151.0224 129.932308 
L 151.1712 102.793846 
L 151.32 106.670769 
L 151.4688 141.563077 
L 151.6176 110.547692 
L 151.7664 114.424615 
L 151.9152 106.670769 
L 152.064 106.670769 
L 152.2128 157.070769 
L 152.5104 98.916923 
L 152.6592 110.547692 
L 152.808 79.532308 
L 153.1056 114.424615 
L 153.2544 98.916923 
L 153.4032 122.178462 
L 153.552 95.04 
L 153.7008 110.547692 
L 153.8496 149.316923 
L 153.9984 83.409231 
L 154.1472 87.286154 
L 154.296 114.424615 
L 154.4448 114.424615 
L 154.5936 71.778462 
L 154.7424 126.055385 
L 155.04 95.04 
L 155.1888 114.424615 
L 155.3376 110.547692 
L 155.6352 129.932308 
L 155.784 91.163077 
L 155.9328 133.809231 
L 156.2304 87.286154 
L 156.3792 118.301538 
L 156.528 83.409231 
L 156.6768 95.04 
L 156.8256 129.932308 
L 156.9744 79.532308 
L 157.272 118.301538 
L 157.4208 95.04 
L 157.5696 145.44 
L 157.7184 114.424615 
L 158.016 95.04 
L 158.1648 83.409231 
L 158.3136 95.04 
L 158.4624 141.563077 
L 158.6112 67.901538 
L 158.76 106.670769 
L 159.0576 98.916923 
L 159.2064 129.932308 
L 159.504 91.163077 
L 159.6528 145.44 
L 159.8016 91.163077 
L 159.9504 122.178462 
L 160.0992 114.424615 
L 160.248 87.286154 
L 160.3968 126.055385 
L 160.5456 75.655385 
L 160.6944 118.301538 
L 160.992 64.024615 
L 161.1408 122.178462 
L 161.2896 118.301538 
L 161.4384 106.670769 
L 161.5872 137.686154 
L 161.8848 87.286154 
L 162.0336 137.686154 
L 162.3312 83.409231 
L 162.48 129.932308 
L 162.6288 118.301538 
L 162.7776 133.809231 
L 162.9264 98.916923 
L 163.0752 137.686154 
L 163.224 106.670769 
L 163.3728 118.301538 
L 163.5216 102.793846 
L 163.6704 98.916923 
L 163.968 157.070769 
L 164.1168 102.793846 
L 164.4144 129.932308 
L 164.5632 122.178462 
L 164.712 95.04 
L 164.8608 114.424615 
L 165.0096 102.793846 
L 165.1584 122.178462 
L 165.3072 122.178462 
L 165.456 95.04 
L 165.6048 133.809231 
L 165.7536 129.932308 
L 165.9024 149.316923 
L 166.2 114.424615 
L 166.3488 129.932308 
L 166.4976 126.055385 
L 166.7952 106.670769 
L 166.944 118.301538 
L 167.0928 106.670769 
L 167.2416 126.055385 
L 167.688 126.055385 
L 167.8368 122.178462 
L 168.1344 129.932308 
L 168.2832 129.932308 
L 168.432 87.286154 
L 168.5808 118.301538 
L 168.7296 118.301538 
L 169.0272 110.547692 
L 169.176 129.932308 
L 169.3248 102.793846 
L 169.4736 102.793846 
L 169.7712 126.055385 
L 169.92 114.424615 
L 170.0688 91.163077 
L 170.2176 122.178462 
L 170.5152 230.732308 
L 170.8128 211.347692 
L 170.9616 157.070769 
L 171.1104 157.070769 
L 171.2592 114.424615 
L 171.5568 226.855385 
L 171.7056 246.24 
L 172.3008 246.24 
L 172.4496 242.363077 
L 172.7472 199.716923 
L 172.896 207.470769 
L 173.0448 246.24 
L 173.1936 219.101538 
L 173.3424 246.24 
L 173.4912 246.24 
L 173.64 207.470769 
L 173.7888 137.686154 
L 173.9376 133.809231 
L 174.0864 141.563077 
L 174.384 118.301538 
L 174.5328 126.055385 
L 174.6816 122.178462 
L 174.8304 114.424615 
L 175.128 246.24 
L 175.2768 222.978462 
L 175.4256 246.24 
L 176.0208 246.24 
L 176.1696 199.716923 
L 176.4672 180.332308 
L 176.616 215.224615 
L 176.7648 126.055385 
L 177.0624 219.101538 
L 177.2112 141.563077 
L 177.36 246.24 
L 177.5088 211.347692 
L 177.6576 246.24 
L 177.8064 199.716923 
L 177.9552 242.363077 
L 178.104 242.363077 
L 178.2528 188.086154 
L 178.4016 234.609231 
L 178.5504 230.732308 
L 178.6992 133.809231 
L 178.848 219.101538 
L 178.9968 102.793846 
L 179.1456 114.424615 
L 179.2944 137.686154 
L 179.4432 118.301538 
L 179.592 141.563077 
L 179.8896 110.547692 
L 180.1872 246.24 
L 180.336 234.609231 
L 180.4848 199.716923 
L 180.6336 199.716923 
L 180.7824 203.593846 
L 180.9312 188.086154 
L 181.08 246.24 
L 181.2288 242.363077 
L 181.3776 149.316923 
L 181.5264 207.470769 
L 181.6752 219.101538 
L 181.824 184.209231 
L 181.9728 118.301538 
L 182.1216 122.178462 
L 182.2704 114.424615 
L 182.568 145.44 
L 182.7168 118.301538 
L 182.8656 137.686154 
L 183.0144 129.932308 
L 183.1632 141.563077 
L 183.312 122.178462 
L 183.4608 153.193846 
L 183.6096 149.316923 
L 183.9072 246.24 
L 184.3536 246.24 
L 184.9488 129.932308 
L 185.0976 137.686154 
L 185.2464 160.947692 
L 185.3952 133.809231 
L 185.544 168.701538 
L 185.6928 246.24 
L 186.5856 246.24 
L 186.7344 219.101538 
L 187.032 246.24 
L 188.8176 246.24 
L 188.9664 238.486154 
L 189.1152 246.24 
L 189.4128 149.316923 
L 189.7104 238.486154 
L 189.8592 230.732308 
L 190.008 246.24 
L 190.9008 246.24 
L 191.0496 211.347692 
L 191.1984 226.855385 
L 191.3472 191.963077 
L 191.496 129.932308 
L 191.6448 238.486154 
L 191.7936 246.24 
L 192.24 246.24 
L 192.5376 207.470769 
L 192.6864 238.486154 
L 192.8352 246.24 
L 193.2816 246.24 
L 193.4304 226.855385 
L 193.728 141.563077 
L 193.8768 133.809231 
L 194.0256 141.563077 
L 194.3232 246.24 
L 194.472 246.24 
L 194.6208 242.363077 
L 194.7696 199.716923 
L 194.9184 230.732308 
L 195.0672 211.347692 
L 195.216 246.24 
L 196.1088 246.24 
L 196.2576 242.363077 
L 196.4064 230.732308 
L 196.5552 246.24 
L 197.0016 246.24 
L 197.1504 242.363077 
L 197.2992 149.316923 
L 197.448 242.363077 
L 197.5968 222.978462 
L 197.7456 230.732308 
L 197.8944 246.24 
L 198.4896 246.24 
L 198.7872 126.055385 
L 198.936 129.932308 
L 199.2336 246.24 
L 199.3824 238.486154 
L 199.5312 246.24 
L 199.68 246.24 
L 199.8288 242.363077 
L 200.1264 141.563077 
L 200.2752 145.44 
L 200.424 153.193846 
L 200.7216 137.686154 
L 201.0192 168.701538 
L 201.3168 176.455385 
L 201.4656 153.193846 
L 201.6144 164.824615 
L 201.7632 137.686154 
L 201.912 145.44 
L 202.0608 129.932308 
L 202.2096 164.824615 
L 202.3584 160.947692 
L 202.5072 160.947692 
L 202.656 137.686154 
L 203.2512 246.24 
L 205.1856 246.24 
L 205.3344 242.363077 
L 205.4832 207.470769 
L 205.632 246.24 
L 205.9296 246.24 
L 206.0784 234.609231 
L 206.2272 242.363077 
L 206.376 222.978462 
L 206.5248 230.732308 
L 206.6736 246.24 
L 207.2688 246.24 
L 207.5664 199.716923 
L 207.7152 184.209231 
L 208.0128 215.224615 
L 208.1616 246.24 
L 208.7568 246.24 
L 208.9056 215.224615 
L 209.0544 215.224615 
L 209.2032 180.332308 
L 209.352 246.24 
L 210.2448 246.24 
L 210.5424 168.701538 
L 210.6912 176.455385 
L 210.9888 242.363077 
L 211.1376 238.486154 
L 211.2864 246.24 
L 213.5184 246.24 
L 213.6672 234.609231 
L 213.816 246.24 
L 214.2624 246.24 
L 214.56 226.855385 
L 214.7088 230.732308 
L 214.8576 246.24 
L 216.9408 246.24 
L 217.0896 242.363077 
L 217.2384 246.24 
L 217.3872 242.363077 
L 217.536 246.24 
L 221.4048 246.24 
L 221.7024 238.486154 
L 221.8512 246.24 
L 224.0832 246.24 
L 224.232 242.363077 
L 224.3808 246.24 
L 226.6128 246.24 
L 226.7616 242.363077 
L 226.9104 246.24 
L 227.5056 246.24 
L 227.6544 242.363077 
L 227.8032 242.363077 
L 227.952 246.24 
L 234.7968 246.24 
L 234.9456 242.363077 
L 235.0944 246.24 
L 253.0992 246.24 
L 253.248 242.363077 
L 253.3968 246.24 
L 256.0752 246.24 
L 256.3728 199.716923 
L 256.5216 246.24 
L 258.6048 246.24 
L 258.9024 199.716923 
L 259.0512 246.24 
L 259.2 246.24 
L 259.2 246.24 
" clip-path="url(#pfcf11a4e2d)" style="fill: none; stroke: #008000; stroke-width: 0.5; stroke-linecap: square"/>
   </g>
   <g id="line2d_6">
    <path d="M 35.8512 246.24 
L 72.0096 246.24 
L 72.1584 242.363077 
L 72.3072 246.24 
L 79.896 246.24 
L 80.0448 234.609231 
L 80.1936 246.24 
L 80.7888 246.24 
L 80.9376 238.486154 
L 81.2352 145.44 
L 81.384 160.947692 
L 81.5328 246.24 
L 81.8304 246.24 
L 82.128 157.070769 
L 82.2768 137.686154 
L 82.4256 149.316923 
L 82.5744 110.547692 
L 82.7232 141.563077 
L 82.872 141.563077 
L 83.0208 137.686154 
L 83.1696 118.301538 
L 83.3184 137.686154 
L 83.616 83.409231 
L 83.7648 106.670769 
L 83.9136 95.04 
L 84.0624 110.547692 
L 84.2112 83.409231 
L 84.36 87.286154 
L 84.5088 114.424615 
L 84.6576 98.916923 
L 84.8064 106.670769 
L 84.9552 91.163077 
L 85.104 87.286154 
L 85.4016 118.301538 
L 85.848 87.286154 
L 85.9968 137.686154 
L 86.1456 106.670769 
L 86.2944 106.670769 
L 86.4432 91.163077 
L 86.7408 106.670769 
L 86.8896 87.286154 
L 87.0384 122.178462 
L 87.1872 91.163077 
L 87.336 114.424615 
L 87.4848 102.793846 
L 87.6336 110.547692 
L 87.7824 102.793846 
L 87.9312 102.793846 
L 88.08 133.809231 
L 88.2288 106.670769 
L 88.6752 126.055385 
L 88.9728 95.04 
L 89.1216 122.178462 
L 89.2704 67.901538 
L 89.4192 102.793846 
L 89.8656 91.163077 
L 90.0144 79.532308 
L 90.1632 137.686154 
L 90.4608 75.655385 
L 90.6096 110.547692 
L 90.7584 118.301538 
L 91.056 98.916923 
L 91.2048 145.44 
L 91.3536 110.547692 
L 91.5024 102.793846 
L 91.6512 141.563077 
L 91.9488 91.163077 
L 92.0976 102.793846 
L 92.2464 137.686154 
L 92.3952 91.163077 
L 92.544 102.793846 
L 92.6928 149.316923 
L 93.1392 71.778462 
L 93.288 122.178462 
L 93.4368 95.04 
L 93.5856 102.793846 
L 93.7344 145.44 
L 93.8832 137.686154 
L 94.1808 95.04 
L 94.3296 114.424615 
L 94.4784 87.286154 
L 94.776 122.178462 
L 94.9248 122.178462 
L 95.2224 60.147692 
L 95.3712 137.686154 
L 95.52 98.916923 
L 95.6688 98.916923 
L 95.9664 137.686154 
L 96.1152 75.655385 
L 96.4128 168.701538 
L 96.7104 71.778462 
L 97.008 145.44 
L 97.1568 83.409231 
L 97.3056 87.286154 
L 97.4544 118.301538 
L 97.6032 87.286154 
L 97.752 102.793846 
L 97.9008 129.932308 
L 98.1984 79.532308 
L 98.3472 87.286154 
L 98.496 118.301538 
L 98.6448 114.424615 
L 98.9424 83.409231 
L 99.0912 160.947692 
L 99.24 106.670769 
L 99.3888 110.547692 
L 99.5376 126.055385 
L 99.6864 122.178462 
L 99.984 106.670769 
L 100.1328 102.793846 
L 100.2816 71.778462 
L 100.5792 133.809231 
L 100.8768 98.916923 
L 101.0256 98.916923 
L 101.1744 153.193846 
L 101.472 102.793846 
L 101.6208 133.809231 
L 101.7696 122.178462 
L 101.9184 91.163077 
L 102.0672 87.286154 
L 102.216 157.070769 
L 102.3648 106.670769 
L 102.6624 114.424615 
L 102.96 79.532308 
L 103.2576 114.424615 
L 103.5552 98.916923 
L 103.704 133.809231 
L 103.8528 106.670769 
L 104.0016 110.547692 
L 104.1504 79.532308 
L 104.2992 157.070769 
L 104.5968 98.916923 
L 104.7456 122.178462 
L 104.8944 95.04 
L 105.0432 102.793846 
L 105.192 118.301538 
L 105.3408 110.547692 
L 105.4896 95.04 
L 105.6384 114.424615 
L 105.7872 118.301538 
L 105.936 129.932308 
L 106.2336 75.655385 
L 106.3824 141.563077 
L 106.68 71.778462 
L 106.9776 95.04 
L 107.1264 79.532308 
L 107.2752 95.04 
L 107.424 122.178462 
L 107.5728 87.286154 
L 107.8704 114.424615 
L 108.0192 106.670769 
L 108.168 106.670769 
L 108.4656 114.424615 
L 108.6144 71.778462 
L 108.7632 83.409231 
L 108.912 106.670769 
L 109.0608 157.070769 
L 109.2096 102.793846 
L 109.3584 114.424615 
L 109.5072 157.070769 
L 109.9536 95.04 
L 110.1024 160.947692 
L 110.2512 102.793846 
L 110.5488 137.686154 
L 110.6976 122.178462 
L 110.8464 122.178462 
L 110.9952 102.793846 
L 111.144 164.824615 
L 111.2928 106.670769 
L 111.4416 106.670769 
L 111.5904 133.809231 
L 111.7392 118.301538 
L 111.888 44.64 
L 112.1856 149.316923 
L 112.3344 114.424615 
L 112.4832 106.670769 
L 112.632 149.316923 
L 113.0784 102.793846 
L 113.2272 149.316923 
L 113.376 79.532308 
L 113.5248 75.655385 
L 113.8224 133.809231 
L 113.9712 75.655385 
L 114.12 79.532308 
L 114.2688 126.055385 
L 114.4176 98.916923 
L 114.5664 126.055385 
L 114.7152 129.932308 
L 114.864 129.932308 
L 115.1616 71.778462 
L 115.3104 110.547692 
L 115.4592 87.286154 
L 115.608 87.286154 
L 115.7568 145.44 
L 115.9056 114.424615 
L 116.0544 106.670769 
L 116.2032 114.424615 
L 116.352 164.824615 
L 116.5008 87.286154 
L 116.6496 110.547692 
L 116.7984 199.716923 
L 116.9472 215.224615 
L 117.096 168.701538 
L 117.2448 168.701538 
L 117.3936 246.24 
L 117.5424 246.24 
L 117.6912 226.855385 
L 117.84 246.24 
L 118.1376 226.855385 
L 118.2864 246.24 
L 118.584 246.24 
L 118.7328 242.363077 
L 118.8816 246.24 
L 120.3696 246.24 
L 120.6672 238.486154 
L 120.816 246.24 
L 123.048 246.24 
L 123.1968 242.363077 
L 123.3456 246.24 
L 124.3872 246.24 
L 124.536 242.363077 
L 124.6848 246.24 
L 128.4048 246.24 
L 128.5536 238.486154 
L 128.7024 246.24 
L 259.2 246.24 
L 259.2 246.24 
" clip-path="url(#pfcf11a4e2d)" style="fill: none; stroke: #ff0000; stroke-width: 0.5; stroke-linecap: square"/>
   </g>
   <g id="patch_3">
    <path d="M 36 256.32 
L 36 34.56 
" style="fill: none; stroke: #000000; stroke-width: 0.8; stroke-linejoin: miter; stroke-linecap: square"/>
   </g>
   <g id="patch_4">
    <path d="M 259.2 256.32 
L 259.2 34.56 
" style="fill: none; stroke: #000000; stroke-width: 0.8; stroke-linejoin: miter; stroke-linecap: square"/>
   </g>
   <g id="patch_5">
    <path d="M 36 256.32 
L 259.2 256.32 
" style="fill: none; stroke: #000000; stroke-width: 0.8; stroke-linejoin: miter; stroke-linecap: square"/>
   </g>
   <g id="patch_6">
    <path d="M 36 34.56 
L 259.2 34.56 
" style="fill: none; stroke: #000000; stroke-width: 0.8; stroke-linejoin: miter; stroke-linecap: square"/>
   </g>
  </g>
 </g>
 <defs>
  <clipPath id="pfcf11a4e2d">
   <rect x="36" y="34.56" width="223.2" height="221.76"/>
  </clipPath>
 </defs>
</svg>
