<?xml version="1.0" encoding="utf-8" standalone="no"?>
<!DOCTYPE svg PUBLIC "-//W3C//DTD SVG 1.1//EN"
  "http://www.w3.org/Graphics/SVG/1.1/DTD/svg11.dtd">
<svg xmlns:xlink="http://www.w3.org/1999/xlink" width="360pt" height="360pt" viewBox="0 0 360 360" xmlns="http://www.w3.org/2000/svg" version="1.1">
 <metadata>
  <rdf:RDF xmlns:dc="http://purl.org/dc/elements/1.1/" xmlns:cc="http://creativecommons.org/ns#" xmlns:rdf="http://www.w3.org/1999/02/22-rdf-syntax-ns#">
   <cc:Work>
    <dc:type rdf:resource="http://purl.org/dc/dcmitype/StillImage"/>
    <dc:date>2023-01-26T18:08:31.631260</dc:date>
    <dc:format>image/svg+xml</dc:format>
    <dc:creator>
     <cc:Agent>
      <dc:title>Matplotlib v3.5.2, https://matplotlib.org/</dc:title>
     </cc:Agent>
    </dc:creator>
   </cc:Work>
  </rdf:RDF>
 </metadata>
 <defs>
  <style type="text/css">*{stroke-linejoin: round; stroke-linecap: butt}</style>
 </defs>
 <g id="figure_1">
  <g id="patch_1">
   <path d="M 0 360 
L 360 360 
L 360 0 
L 0 0 
z
" style="fill: #ffffff"/>
  </g>
  <g id="axes_1">
   <g id="patch_2">
    <path d="M 45 320.4 
L 324 320.4 
L 324 43.2 
L 45 43.2 
z
" style="fill: #ffffff"/>
   </g>
   <g id="matplotlib.axis_1">
    <g id="xtick_1">
     <g id="line2d_1">
      <defs>
       <path id="me0c81ec7e1" d="M 0 0 
L 0 3 
" style="stroke: #000000"/>
      </defs>
      <g>
       <use xlink:href="#me0c81ec7e1" x="45" y="320.4" style="stroke: #000000"/>
      </g>
     </g>
     <g id="text_1">
      <!-- 0.0 -->
      <g transform="translate(33.072656 338.297656)scale(0.15 -0.15)">
       <defs>
        <path id="DejaVuSans-30" d="M 2034 4250 
Q 1547 4250 1301 3770 
Q 1056 3291 1056 2328 
Q 1056 1369 1301 889 
Q 1547 409 2034 409 
Q 2525 409 2770 889 
Q 3016 1369 3016 2328 
Q 3016 3291 2770 3770 
Q 2525 4250 2034 4250 
z
M 2034 4750 
Q 2819 4750 3233 4129 
Q 3647 3509 3647 2328 
Q 3647 1150 3233 529 
Q 2819 -91 2034 -91 
Q 1250 -91 836 529 
Q 422 1150 422 2328 
Q 422 3509 836 4129 
Q 1250 4750 2034 4750 
z
" transform="scale(0.015625)"/>
        <path id="DejaVuSans-2e" d="M 684 794 
L 1344 794 
L 1344 0 
L 684 0 
L 684 794 
z
" transform="scale(0.015625)"/>
       </defs>
       <use xlink:href="#DejaVuSans-30"/>
       <use xlink:href="#DejaVuSans-2e" x="63.623047"/>
       <use xlink:href="#DejaVuSans-30" x="95.410156"/>
      </g>
     </g>
    </g>
    <g id="xtick_2">
     <g id="line2d_2">
      <g>
       <use xlink:href="#me0c81ec7e1" x="184.5" y="320.4" style="stroke: #000000"/>
      </g>
     </g>
     <g id="text_2">
      <!-- 1.0 -->
      <g transform="translate(172.572656 338.297656)scale(0.15 -0.15)">
       <defs>
        <path id="DejaVuSans-31" d="M 794 531 
L 1825 531 
L 1825 4091 
L 703 3866 
L 703 4441 
L 1819 4666 
L 2450 4666 
L 2450 531 
L 3481 531 
L 3481 0 
L 794 0 
L 794 531 
z
" transform="scale(0.015625)"/>
       </defs>
       <use xlink:href="#DejaVuSans-31"/>
       <use xlink:href="#DejaVuSans-2e" x="63.623047"/>
       <use xlink:href="#DejaVuSans-30" x="95.410156"/>
      </g>
     </g>
    </g>
    <g id="xtick_3">
     <g id="line2d_3">
      <g>
       <use xlink:href="#me0c81ec7e1" x="254.25" y="320.4" style="stroke: #000000"/>
      </g>
     </g>
     <g id="text_3">
      <!-- 1.5 -->
      <g transform="translate(242.322656 338.297656)scale(0.15 -0.15)">
       <defs>
        <path id="DejaVuSans-35" d="M 691 4666 
L 3169 4666 
L 3169 4134 
L 1269 4134 
L 1269 2991 
Q 1406 3038 1543 3061 
Q 1681 3084 1819 3084 
Q 2600 3084 3056 2656 
Q 3513 2228 3513 1497 
Q 3513 744 3044 326 
Q 2575 -91 1722 -91 
Q 1428 -91 1123 -41 
Q 819 9 494 109 
L 494 744 
Q 775 591 1075 516 
Q 1375 441 1709 441 
Q 2250 441 2565 725 
Q 2881 1009 2881 1497 
Q 2881 1984 2565 2268 
Q 2250 2553 1709 2553 
Q 1456 2553 1204 2497 
Q 953 2441 691 2322 
L 691 4666 
z
" transform="scale(0.015625)"/>
       </defs>
       <use xlink:href="#DejaVuSans-31"/>
       <use xlink:href="#DejaVuSans-2e" x="63.623047"/>
       <use xlink:href="#DejaVuSans-35" x="95.410156"/>
      </g>
     </g>
    </g>
    <g id="xtick_4">
     <g id="line2d_4">
      <g>
       <use xlink:href="#me0c81ec7e1" x="324" y="320.4" style="stroke: #000000"/>
      </g>
     </g>
     <g id="text_4">
      <!-- 2.0 -->
      <g transform="translate(312.072656 338.297656)scale(0.15 -0.15)">
       <defs>
        <path id="DejaVuSans-32" d="M 1228 531 
L 3431 531 
L 3431 0 
L 469 0 
L 469 531 
Q 828 903 1448 1529 
Q 2069 2156 2228 2338 
Q 2531 2678 2651 2914 
Q 2772 3150 2772 3378 
Q 2772 3750 2511 3984 
Q 2250 4219 1831 4219 
Q 1534 4219 1204 4116 
Q 875 4013 500 3803 
L 500 4441 
Q 881 4594 1212 4672 
Q 1544 4750 1819 4750 
Q 2544 4750 2975 4387 
Q 3406 4025 3406 3419 
Q 3406 3131 3298 2873 
Q 3191 2616 2906 2266 
Q 2828 2175 2409 1742 
Q 1991 1309 1228 531 
z
" transform="scale(0.015625)"/>
       </defs>
       <use xlink:href="#DejaVuSans-32"/>
       <use xlink:href="#DejaVuSans-2e" x="63.623047"/>
       <use xlink:href="#DejaVuSans-30" x="95.410156"/>
      </g>
     </g>
    </g>
    <g id="text_5">
     <!-- Time [s] -->
     <g transform="translate(154.006641 356.814844)scale(0.15 -0.15)">
      <defs>
       <path id="DejaVuSans-54" d="M -19 4666 
L 3928 4666 
L 3928 4134 
L 2272 4134 
L 2272 0 
L 1638 0 
L 1638 4134 
L -19 4134 
L -19 4666 
z
" transform="scale(0.015625)"/>
       <path id="DejaVuSans-69" d="M 603 3500 
L 1178 3500 
L 1178 0 
L 603 0 
L 603 3500 
z
M 603 4863 
L 1178 4863 
L 1178 4134 
L 603 4134 
L 603 4863 
z
" transform="scale(0.015625)"/>
       <path id="DejaVuSans-6d" d="M 3328 2828 
Q 3544 3216 3844 3400 
Q 4144 3584 4550 3584 
Q 5097 3584 5394 3201 
Q 5691 2819 5691 2113 
L 5691 0 
L 5113 0 
L 5113 2094 
Q 5113 2597 4934 2840 
Q 4756 3084 4391 3084 
Q 3944 3084 3684 2787 
Q 3425 2491 3425 1978 
L 3425 0 
L 2847 0 
L 2847 2094 
Q 2847 2600 2669 2842 
Q 2491 3084 2119 3084 
Q 1678 3084 1418 2786 
Q 1159 2488 1159 1978 
L 1159 0 
L 581 0 
L 581 3500 
L 1159 3500 
L 1159 2956 
Q 1356 3278 1631 3431 
Q 1906 3584 2284 3584 
Q 2666 3584 2933 3390 
Q 3200 3197 3328 2828 
z
" transform="scale(0.015625)"/>
       <path id="DejaVuSans-65" d="M 3597 1894 
L 3597 1613 
L 953 1613 
Q 991 1019 1311 708 
Q 1631 397 2203 397 
Q 2534 397 2845 478 
Q 3156 559 3463 722 
L 3463 178 
Q 3153 47 2828 -22 
Q 2503 -91 2169 -91 
Q 1331 -91 842 396 
Q 353 884 353 1716 
Q 353 2575 817 3079 
Q 1281 3584 2069 3584 
Q 2775 3584 3186 3129 
Q 3597 2675 3597 1894 
z
M 3022 2063 
Q 3016 2534 2758 2815 
Q 2500 3097 2075 3097 
Q 1594 3097 1305 2825 
Q 1016 2553 972 2059 
L 3022 2063 
z
" transform="scale(0.015625)"/>
       <path id="DejaVuSans-20" transform="scale(0.015625)"/>
       <path id="DejaVuSans-5b" d="M 550 4863 
L 1875 4863 
L 1875 4416 
L 1125 4416 
L 1125 -397 
L 1875 -397 
L 1875 -844 
L 550 -844 
L 550 4863 
z
" transform="scale(0.015625)"/>
       <path id="DejaVuSans-73" d="M 2834 3397 
L 2834 2853 
Q 2591 2978 2328 3040 
Q 2066 3103 1784 3103 
Q 1356 3103 1142 2972 
Q 928 2841 928 2578 
Q 928 2378 1081 2264 
Q 1234 2150 1697 2047 
L 1894 2003 
Q 2506 1872 2764 1633 
Q 3022 1394 3022 966 
Q 3022 478 2636 193 
Q 2250 -91 1575 -91 
Q 1294 -91 989 -36 
Q 684 19 347 128 
L 347 722 
Q 666 556 975 473 
Q 1284 391 1588 391 
Q 1994 391 2212 530 
Q 2431 669 2431 922 
Q 2431 1156 2273 1281 
Q 2116 1406 1581 1522 
L 1381 1569 
Q 847 1681 609 1914 
Q 372 2147 372 2553 
Q 372 3047 722 3315 
Q 1072 3584 1716 3584 
Q 2034 3584 2315 3537 
Q 2597 3491 2834 3397 
z
" transform="scale(0.015625)"/>
       <path id="DejaVuSans-5d" d="M 1947 4863 
L 1947 -844 
L 622 -844 
L 622 -397 
L 1369 -397 
L 1369 4416 
L 622 4416 
L 622 4863 
L 1947 4863 
z
" transform="scale(0.015625)"/>
      </defs>
      <use xlink:href="#DejaVuSans-54"/>
      <use xlink:href="#DejaVuSans-69" x="57.958984"/>
      <use xlink:href="#DejaVuSans-6d" x="85.742188"/>
      <use xlink:href="#DejaVuSans-65" x="183.154297"/>
      <use xlink:href="#DejaVuSans-20" x="244.677734"/>
      <use xlink:href="#DejaVuSans-5b" x="276.464844"/>
      <use xlink:href="#DejaVuSans-73" x="315.478516"/>
      <use xlink:href="#DejaVuSans-5d" x="367.578125"/>
     </g>
    </g>
   </g>
   <g id="matplotlib.axis_2">
    <g id="ytick_1">
     <g id="line2d_5">
      <defs>
       <path id="m371a5db0f2" d="M 0 0 
L -3 0 
" style="stroke: #000000"/>
      </defs>
      <g>
       <use xlink:href="#m371a5db0f2" x="45" y="237.78055" style="stroke: #000000"/>
      </g>
     </g>
     <g id="text_6">
      <!-- 1000 -->
      <g transform="translate(0.325 243.479378)scale(0.15 -0.15)">
       <use xlink:href="#DejaVuSans-31"/>
       <use xlink:href="#DejaVuSans-30" x="63.623047"/>
       <use xlink:href="#DejaVuSans-30" x="127.246094"/>
       <use xlink:href="#DejaVuSans-30" x="190.869141"/>
      </g>
     </g>
    </g>
    <g id="ytick_2">
     <g id="line2d_6">
      <g>
       <use xlink:href="#m371a5db0f2" x="45" y="167.7611" style="stroke: #000000"/>
      </g>
     </g>
     <g id="text_7">
      <!-- 2000 -->
      <g transform="translate(0.325 173.459928)scale(0.15 -0.15)">
       <use xlink:href="#DejaVuSans-32"/>
       <use xlink:href="#DejaVuSans-30" x="63.623047"/>
       <use xlink:href="#DejaVuSans-30" x="127.246094"/>
       <use xlink:href="#DejaVuSans-30" x="190.869141"/>
      </g>
     </g>
    </g>
    <g id="ytick_3">
     <g id="line2d_7">
      <g>
       <use xlink:href="#m371a5db0f2" x="45" y="97.74165" style="stroke: #000000"/>
      </g>
     </g>
     <g id="text_8">
      <!-- 3000 -->
      <g transform="translate(0.325 103.440479)scale(0.15 -0.15)">
       <defs>
        <path id="DejaVuSans-33" d="M 2597 2516 
Q 3050 2419 3304 2112 
Q 3559 1806 3559 1356 
Q 3559 666 3084 287 
Q 2609 -91 1734 -91 
Q 1441 -91 1130 -33 
Q 819 25 488 141 
L 488 750 
Q 750 597 1062 519 
Q 1375 441 1716 441 
Q 2309 441 2620 675 
Q 2931 909 2931 1356 
Q 2931 1769 2642 2001 
Q 2353 2234 1838 2234 
L 1294 2234 
L 1294 2753 
L 1863 2753 
Q 2328 2753 2575 2939 
Q 2822 3125 2822 3475 
Q 2822 3834 2567 4026 
Q 2313 4219 1838 4219 
Q 1578 4219 1281 4162 
Q 984 4106 628 3988 
L 628 4550 
Q 988 4650 1302 4700 
Q 1616 4750 1894 4750 
Q 2613 4750 3031 4423 
Q 3450 4097 3450 3541 
Q 3450 3153 3228 2886 
Q 3006 2619 2597 2516 
z
" transform="scale(0.015625)"/>
       </defs>
       <use xlink:href="#DejaVuSans-33"/>
       <use xlink:href="#DejaVuSans-30" x="63.623047"/>
       <use xlink:href="#DejaVuSans-30" x="127.246094"/>
       <use xlink:href="#DejaVuSans-30" x="190.869141"/>
      </g>
     </g>
    </g>
    <g id="text_9">
     <!-- Event count -->
     <g transform="translate(-6.794531 226.829297)rotate(-90)scale(0.15 -0.15)">
      <defs>
       <path id="DejaVuSans-45" d="M 628 4666 
L 3578 4666 
L 3578 4134 
L 1259 4134 
L 1259 2753 
L 3481 2753 
L 3481 2222 
L 1259 2222 
L 1259 531 
L 3634 531 
L 3634 0 
L 628 0 
L 628 4666 
z
" transform="scale(0.015625)"/>
       <path id="DejaVuSans-76" d="M 191 3500 
L 800 3500 
L 1894 563 
L 2988 3500 
L 3597 3500 
L 2284 0 
L 1503 0 
L 191 3500 
z
" transform="scale(0.015625)"/>
       <path id="DejaVuSans-6e" d="M 3513 2113 
L 3513 0 
L 2938 0 
L 2938 2094 
Q 2938 2591 2744 2837 
Q 2550 3084 2163 3084 
Q 1697 3084 1428 2787 
Q 1159 2491 1159 1978 
L 1159 0 
L 581 0 
L 581 3500 
L 1159 3500 
L 1159 2956 
Q 1366 3272 1645 3428 
Q 1925 3584 2291 3584 
Q 2894 3584 3203 3211 
Q 3513 2838 3513 2113 
z
" transform="scale(0.015625)"/>
       <path id="DejaVuSans-74" d="M 1172 4494 
L 1172 3500 
L 2356 3500 
L 2356 3053 
L 1172 3053 
L 1172 1153 
Q 1172 725 1289 603 
Q 1406 481 1766 481 
L 2356 481 
L 2356 0 
L 1766 0 
Q 1100 0 847 248 
Q 594 497 594 1153 
L 594 3053 
L 172 3053 
L 172 3500 
L 594 3500 
L 594 4494 
L 1172 4494 
z
" transform="scale(0.015625)"/>
       <path id="DejaVuSans-63" d="M 3122 3366 
L 3122 2828 
Q 2878 2963 2633 3030 
Q 2388 3097 2138 3097 
Q 1578 3097 1268 2742 
Q 959 2388 959 1747 
Q 959 1106 1268 751 
Q 1578 397 2138 397 
Q 2388 397 2633 464 
Q 2878 531 3122 666 
L 3122 134 
Q 2881 22 2623 -34 
Q 2366 -91 2075 -91 
Q 1284 -91 818 406 
Q 353 903 353 1747 
Q 353 2603 823 3093 
Q 1294 3584 2113 3584 
Q 2378 3584 2631 3529 
Q 2884 3475 3122 3366 
z
" transform="scale(0.015625)"/>
       <path id="DejaVuSans-6f" d="M 1959 3097 
Q 1497 3097 1228 2736 
Q 959 2375 959 1747 
Q 959 1119 1226 758 
Q 1494 397 1959 397 
Q 2419 397 2687 759 
Q 2956 1122 2956 1747 
Q 2956 2369 2687 2733 
Q 2419 3097 1959 3097 
z
M 1959 3584 
Q 2709 3584 3137 3096 
Q 3566 2609 3566 1747 
Q 3566 888 3137 398 
Q 2709 -91 1959 -91 
Q 1206 -91 779 398 
Q 353 888 353 1747 
Q 353 2609 779 3096 
Q 1206 3584 1959 3584 
z
" transform="scale(0.015625)"/>
       <path id="DejaVuSans-75" d="M 544 1381 
L 544 3500 
L 1119 3500 
L 1119 1403 
Q 1119 906 1312 657 
Q 1506 409 1894 409 
Q 2359 409 2629 706 
Q 2900 1003 2900 1516 
L 2900 3500 
L 3475 3500 
L 3475 0 
L 2900 0 
L 2900 538 
Q 2691 219 2414 64 
Q 2138 -91 1772 -91 
Q 1169 -91 856 284 
Q 544 659 544 1381 
z
M 1991 3584 
L 1991 3584 
z
" transform="scale(0.015625)"/>
      </defs>
      <use xlink:href="#DejaVuSans-45"/>
      <use xlink:href="#DejaVuSans-76" x="63.183594"/>
      <use xlink:href="#DejaVuSans-65" x="122.363281"/>
      <use xlink:href="#DejaVuSans-6e" x="183.886719"/>
      <use xlink:href="#DejaVuSans-74" x="247.265625"/>
      <use xlink:href="#DejaVuSans-20" x="286.474609"/>
      <use xlink:href="#DejaVuSans-63" x="318.261719"/>
      <use xlink:href="#DejaVuSans-6f" x="373.242188"/>
      <use xlink:href="#DejaVuSans-75" x="434.423828"/>
      <use xlink:href="#DejaVuSans-6e" x="497.802734"/>
      <use xlink:href="#DejaVuSans-74" x="561.181641"/>
     </g>
    </g>
   </g>
   <g id="line2d_8">
    <path d="M 45.001395 307.589942 
L 45.140895 307.8 
L 45.280395 307.8 
L 45.419895 307.589942 
L 45.559395 307.8 
L 66.484395 307.8 
L 66.623895 307.379883 
L 66.763395 307.8 
L 73.180395 307.8 
L 73.319895 307.659961 
L 73.598895 307.8 
L 74.156895 307.8 
L 74.296395 307.029786 
L 74.435895 304.369047 
L 74.575395 307.8 
L 74.714895 307.729981 
L 74.993895 307.8 
L 76.388895 307.729981 
L 76.528395 303.388775 
L 76.807395 307.729981 
L 76.946895 307.519922 
L 77.086395 307.519922 
L 77.225895 307.729981 
L 77.365395 307.589942 
L 77.504895 307.8 
L 77.644395 306.399611 
L 77.783895 307.519922 
L 78.202395 307.8 
L 85.177395 307.729981 
L 85.316895 300.517977 
L 85.456395 307.8 
L 85.595895 307.8 
L 85.874895 61.891692 
L 86.014395 59.441011 
L 86.153895 84.998111 
L 86.432895 305.839455 
L 86.572395 307.8 
L 86.711895 307.589942 
L 86.851395 306.329592 
L 86.990895 307.659961 
L 87.130395 305.979494 
L 87.269895 306.53965 
L 87.409395 306.399611 
L 87.827895 307.8 
L 88.106895 307.8 
L 88.246395 300.447958 
L 88.385895 304.929203 
L 88.525395 305.139261 
L 88.664895 307.659961 
L 88.804395 307.8 
L 88.943895 307.659961 
L 89.222895 307.8 
L 89.641395 307.8 
L 89.780895 305.069241 
L 89.920395 307.8 
L 90.059895 307.8 
L 90.199395 306.679689 
L 90.338895 307.659961 
L 90.617895 307.8 
L 92.570895 307.8 
L 92.710395 307.659961 
L 92.989395 306.819728 
L 93.268395 307.8 
L 93.407895 307.8 
L 93.547395 307.659961 
L 93.686895 307.8 
L 93.826395 307.449903 
L 94.105395 307.8 
L 94.523895 307.8 
L 94.663395 307.589942 
L 94.802895 307.589942 
L 94.942395 307.8 
L 96.337395 307.8 
L 96.476895 307.519922 
L 96.616395 307.8 
L 100.382895 307.8 
L 100.522395 307.239844 
L 100.661895 307.8 
L 100.801395 307.8 
L 100.940895 307.659961 
L 101.080395 306.959767 
L 101.359395 302.408502 
L 101.498895 306.749708 
L 101.777895 307.8 
L 102.056895 307.729981 
L 102.335895 307.8 
L 105.962895 307.8 
L 106.102395 307.659961 
L 106.381395 307.8 
L 108.752895 307.729981 
L 108.892395 304.299028 
L 109.031895 307.8 
L 110.147895 307.8 
L 110.426895 306.259572 
L 110.566395 307.729981 
L 110.705895 307.449903 
L 110.845395 307.729981 
L 111.682395 307.8 
L 111.821895 306.259572 
L 111.961395 307.8 
L 117.122895 307.8 
L 117.262395 307.589942 
L 117.401895 307.8 
L 120.052395 307.8 
L 120.191895 304.299028 
L 120.331395 307.8 
L 129.398895 307.8 
L 129.538395 307.659961 
L 129.817395 307.8 
L 131.351895 307.8 
L 131.491395 307.519922 
L 131.630895 307.8 
L 144.464895 307.729981 
L 144.604395 307.309864 
L 144.743895 307.8 
L 145.162395 307.8 
L 145.301895 307.519922 
L 145.441395 307.8 
L 145.580895 307.519922 
L 145.720395 307.8 
L 155.485395 307.8 
L 155.624895 250.874187 
L 155.764395 307.8 
L 155.903895 307.8 
L 156.182895 61.331537 
L 156.322395 59.160934 
L 156.461895 102.713031 
L 156.601395 247.793331 
L 157.019895 307.589942 
L 157.159395 307.589942 
L 157.298895 307.8 
L 157.438395 307.729981 
L 157.717395 307.8 
L 158.135895 307.729981 
L 158.414895 291.835565 
L 158.693895 307.589942 
L 158.833395 307.8 
L 158.972895 307.729981 
L 159.112395 304.229008 
L 159.251895 307.8 
L 159.530895 306.399611 
L 159.670395 306.679689 
L 159.809895 307.659961 
L 160.088895 307.8 
L 160.228395 307.8 
L 160.367895 300.728036 
L 160.507395 306.609669 
L 160.646895 307.659961 
L 160.786395 307.659961 
L 161.065395 307.8 
L 161.204895 307.8 
L 161.344395 307.239844 
L 161.623395 307.8 
L 162.041895 307.8 
L 162.181395 306.889747 
L 162.320895 299.747763 
L 162.460395 306.819728 
L 162.599895 307.8 
L 163.436895 307.8 
L 163.576395 307.029786 
L 163.715895 307.8 
L 163.994895 307.8 
L 164.134395 305.2793 
L 164.273895 298.767491 
L 164.413395 306.749708 
L 164.552895 307.8 
L 164.971395 307.8 
L 165.110895 307.239844 
L 165.250395 307.8 
L 165.947895 307.8 
L 166.087395 307.659961 
L 166.366395 307.8 
L 170.690895 307.8 
L 170.830395 307.659961 
L 171.109395 307.8 
L 172.225395 307.8 
L 172.364895 307.239844 
L 172.504395 307.8 
L 172.643895 304.439066 
L 172.783395 307.8 
L 174.317895 307.8 
L 174.457395 305.2793 
L 174.596895 307.8 
L 175.573395 307.729981 
L 175.712895 307.659961 
L 175.991895 307.8 
L 177.107895 307.8 
L 177.386895 305.979494 
L 177.665895 307.449903 
L 177.805395 307.8 
L 177.944895 307.659961 
L 178.223895 307.8 
L 180.734895 307.8 
L 180.874395 307.449903 
L 181.013895 304.999222 
L 181.292895 307.8 
L 183.245895 307.8 
L 183.385395 307.379883 
L 183.664395 307.8 
L 190.360395 307.8 
L 190.499895 307.659961 
L 190.778895 307.8 
L 193.429395 307.8 
L 193.568895 307.519922 
L 193.708395 307.8 
L 193.987395 307.8 
L 194.126895 307.659961 
L 194.405895 307.8 
L 199.148895 307.8 
L 199.288395 306.819728 
L 199.427895 307.8 
L 206.681895 307.8 
L 206.821395 307.379883 
L 207.100395 307.8 
L 208.355895 307.8 
L 208.495395 307.659961 
L 208.774395 307.8 
L 220.352895 307.8 
L 220.492395 307.379883 
L 220.631895 307.8 
L 221.189895 307.8 
L 221.329395 307.519922 
L 221.468895 307.8 
L 225.793395 307.8 
L 225.932895 286.514087 
L 226.072395 307.8 
L 226.211895 307.8 
L 226.490895 59.441011 
L 226.630395 61.261517 
L 226.769895 67.003112 
L 227.048895 269.289303 
L 227.188395 260.956988 
L 227.327895 306.889747 
L 227.467395 307.729981 
L 227.606895 305.069241 
L 227.746395 267.678855 
L 227.885895 302.68858 
L 228.025395 282.522979 
L 228.164895 307.519922 
L 228.304395 307.589942 
L 228.443895 307.8 
L 231.512895 307.8 
L 231.791895 307.029786 
L 231.931395 307.8 
L 232.070895 307.659961 
L 232.349895 307.8 
L 233.884395 307.8 
L 234.023895 307.099806 
L 234.442395 307.8 
L 235.418895 307.8 
L 235.558395 304.299028 
L 235.697895 307.8 
L 240.161895 307.8 
L 240.301395 307.659961 
L 240.580395 307.8 
L 254.111895 307.8 
L 254.251395 307.659961 
L 254.530395 307.8 
L 255.506895 307.8 
L 255.646395 307.659961 
L 255.785895 297.857238 
L 255.925395 307.8 
L 259.133895 307.8 
L 259.412895 307.309864 
L 259.552395 307.8 
L 260.389395 307.8 
L 260.528895 307.659961 
L 260.807895 307.8 
L 262.481895 307.8 
L 262.621395 307.519922 
L 262.760895 307.8 
L 268.898895 307.8 
L 269.038395 307.379883 
L 269.317395 307.8 
L 271.828395 307.8 
L 271.967895 307.379883 
L 272.107395 307.8 
L 296.101395 307.8 
L 296.240895 271.039789 
L 296.380395 307.8 
L 296.519895 307.659961 
L 296.798895 63.152042 
L 296.938395 58.880856 
L 297.077895 74.775271 
L 297.356895 183.585496 
L 297.496395 298.697472 
L 297.635895 307.589942 
L 297.775395 307.659961 
L 297.914895 307.519922 
L 298.054395 306.609669 
L 298.333395 307.729981 
L 298.472895 306.46963 
L 298.612395 307.8 
L 299.030895 307.8 
L 299.170395 304.01895 
L 299.309895 307.8 
L 299.867895 307.8 
L 300.007395 306.889747 
L 300.146895 307.659961 
L 300.286395 306.679689 
L 300.565395 307.8 
L 300.844395 307.8 
L 300.983895 307.449903 
L 301.123395 305.489358 
L 301.262895 307.729981 
L 304.750395 307.8 
L 304.889895 306.609669 
L 305.308395 307.8 
L 305.587395 307.8 
L 305.866395 307.309864 
L 306.005895 307.8 
L 311.167395 307.8 
L 311.306895 307.659961 
L 311.585895 307.8 
L 312.562395 307.8 
L 312.701895 307.659961 
L 312.980895 307.8 
L 313.120395 307.8 
L 313.259895 303.318755 
L 313.538895 307.8 
L 315.491895 307.8 
L 315.770895 307.659961 
L 316.049895 307.8 
L 319.676895 307.8 
L 319.816395 307.589942 
L 320.095395 307.8 
L 321.629895 307.8 
L 321.769395 307.239844 
L 321.769395 307.239844 
" clip-path="url(#p5903d14083)" style="fill: none; stroke: #008000; stroke-linecap: square"/>
   </g>
   <g id="line2d_9">
    <path d="M 45.61938 307.729981 
L 45.89838 307.8 
L 76.30938 307.8 
L 76.44888 285.743873 
L 76.58838 307.8 
L 77.14638 307.8 
L 77.28588 307.659961 
L 77.56488 307.8 
L 80.21538 307.8 
L 80.35488 307.659961 
L 80.63388 307.8 
L 85.23738 307.8 
L 85.51638 55.8 
L 85.65588 90.949764 
L 85.79538 306.329592 
L 85.93488 307.8 
L 101.69838 307.8 
L 101.83788 307.099806 
L 101.97738 307.8 
L 110.06838 307.8 
L 110.20788 303.038677 
L 110.48688 307.8 
L 112.85838 307.8 
L 112.99788 307.379883 
L 113.13738 307.8 
L 114.95088 307.8 
L 115.09038 307.449903 
L 115.22988 307.8 
L 123.04188 307.8 
L 123.18138 307.659961 
L 123.46038 307.8 
L 146.61738 307.8 
L 146.75688 307.519922 
L 146.89638 307.8 
L 155.54538 307.8 
L 155.82438 58.3207 
L 155.96388 96.761378 
L 156.10338 307.379883 
L 156.24288 307.8 
L 156.38238 307.729981 
L 156.66138 307.8 
L 157.91688 307.8 
L 158.05638 307.309864 
L 158.19588 307.729981 
L 158.33538 307.519922 
L 158.47488 307.8 
L 158.89338 307.8 
L 159.03288 307.659961 
L 159.31188 307.8 
L 160.70688 307.8 
L 160.84638 307.659961 
L 161.12538 307.8 
L 163.49688 307.8 
L 163.63638 307.589942 
L 163.77588 307.8 
L 166.28688 307.8 
L 166.42638 307.659961 
L 166.70538 307.8 
L 172.00638 307.8 
L 172.14588 307.659961 
L 172.42488 307.8 
L 174.79638 307.8 
L 174.93588 306.819728 
L 175.07538 307.8 
L 183.16638 307.8 
L 183.30588 305.2793 
L 183.44538 307.729981 
L 183.72438 307.8 
L 200.18538 307.8 
L 200.32488 307.659961 
L 200.60388 307.8 
L 206.74188 307.8 
L 206.88138 304.649125 
L 207.02088 307.8 
L 223.62138 307.8 
L 223.76088 307.519922 
L 223.90038 307.8 
L 225.85338 307.729981 
L 226.13238 60.351264 
L 226.27188 63.852237 
L 226.41138 303.038677 
L 226.55088 307.8 
L 228.22488 307.8 
L 228.36438 307.589942 
L 228.50388 307.8 
L 232.13088 307.8 
L 232.27038 307.659961 
L 232.54938 307.8 
L 233.80488 307.8 
L 233.94438 302.408502 
L 234.08388 307.8 
L 256.40388 307.8 
L 256.54338 307.379883 
L 256.68288 307.8 
L 259.19388 307.8 
L 259.33338 304.999222 
L 259.47288 307.8 
L 271.46988 307.8 
L 271.60938 307.379883 
L 271.74888 307.8 
L 292.95288 307.8 
L 293.09238 307.309864 
L 293.23188 307.8 
L 296.16138 307.8 
L 296.57988 57.200389 
L 296.71938 295.266518 
L 296.85888 307.659961 
L 297.13788 307.8 
L 298.39338 307.8 
L 298.53288 307.519922 
L 298.67238 307.8 
L 315.41238 307.8 
L 315.55188 305.419339 
L 315.55188 305.419339 
" clip-path="url(#p5903d14083)" style="fill: none; stroke: #ff0000; stroke-linecap: square"/>
   </g>
   <g id="patch_3">
    <path d="M 45 320.4 
L 45 43.2 
" style="fill: none; stroke: #000000; stroke-width: 0.8; stroke-linejoin: miter; stroke-linecap: square"/>
   </g>
   <g id="patch_4">
    <path d="M 324 320.4 
L 324 43.2 
" style="fill: none; stroke: #000000; stroke-width: 0.8; stroke-linejoin: miter; stroke-linecap: square"/>
   </g>
   <g id="patch_5">
    <path d="M 45 320.4 
L 324 320.4 
" style="fill: none; stroke: #000000; stroke-width: 0.8; stroke-linejoin: miter; stroke-linecap: square"/>
   </g>
   <g id="patch_6">
    <path d="M 45 43.2 
L 324 43.2 
" style="fill: none; stroke: #000000; stroke-width: 0.8; stroke-linejoin: miter; stroke-linecap: square"/>
   </g>
  </g>
 </g>
 <defs>
  <clipPath id="p5903d14083">
   <rect x="45" y="43.2" width="279" height="277.2"/>
  </clipPath>
 </defs>
</svg>
