<?xml version="1.0" encoding="utf-8" standalone="no"?>
<!DOCTYPE svg PUBLIC "-//W3C//DTD SVG 1.1//EN"
  "http://www.w3.org/Graphics/SVG/1.1/DTD/svg11.dtd">
<svg xmlns:xlink="http://www.w3.org/1999/xlink" width="460.8pt" height="345.6pt" viewBox="0 0 460.8 345.6" xmlns="http://www.w3.org/2000/svg" version="1.1">
 <metadata>
  <rdf:RDF xmlns:dc="http://purl.org/dc/elements/1.1/" xmlns:cc="http://creativecommons.org/ns#" xmlns:rdf="http://www.w3.org/1999/02/22-rdf-syntax-ns#">
   <cc:Work>
    <dc:type rdf:resource="http://purl.org/dc/dcmitype/StillImage"/>
    <dc:date>2023-01-26T17:46:02.166073</dc:date>
    <dc:format>image/svg+xml</dc:format>
    <dc:creator>
     <cc:Agent>
      <dc:title>Matplotlib v3.5.2, https://matplotlib.org/</dc:title>
     </cc:Agent>
    </dc:creator>
   </cc:Work>
  </rdf:RDF>
 </metadata>
 <defs>
  <style type="text/css">*{stroke-linejoin: round; stroke-linecap: butt}</style>
 </defs>
 <g id="figure_1">
  <g id="patch_1">
   <path d="M 0 345.6 
L 460.8 345.6 
L 460.8 0 
L 0 0 
z
" style="fill: #ffffff"/>
  </g>
  <g id="axes_1">
   <g id="patch_2">
    <path d="M 57.6 307.584 
L 414.72 307.584 
L 414.72 41.472 
L 57.6 41.472 
z
" style="fill: #ffffff"/>
   </g>
   <g id="matplotlib.axis_1">
    <g id="xtick_1">
     <g id="line2d_1">
      <path d="M 73.832727 307.584 
L 73.832727 41.472 
" clip-path="url(#p1cf138cb32)" style="fill: none; stroke: #b0b0b0; stroke-width: 0.8; stroke-linecap: square"/>
     </g>
     <g id="line2d_2">
      <defs>
       <path id="m08d92e9d72" d="M 0 0 
L 0 -5 
" style="stroke: #000000; stroke-width: 2"/>
      </defs>
      <g>
       <use xlink:href="#m08d92e9d72" x="73.832727" y="307.584" style="stroke: #000000; stroke-width: 2"/>
      </g>
     </g>
     <g id="text_1">
      <!-- $\mathdefault{0}$ -->
      <g transform="translate(66.979156 331.839495)scale(0.3 -0.3)">
       <defs>
        <path id="CMR17-30" d="M 2688 2038 
C 2688 2430 2682 3099 2413 3613 
C 2176 4063 1798 4224 1466 4224 
C 1158 4224 768 4082 525 3620 
C 269 3137 243 2539 243 2038 
C 243 1671 250 1112 448 623 
C 723 -39 1216 -128 1466 -128 
C 1760 -128 2208 -7 2470 604 
C 2662 1048 2688 1568 2688 2038 
z
M 1466 -26 
C 1056 -26 813 328 723 816 
C 653 1196 653 1749 653 2109 
C 653 2604 653 3015 736 3407 
C 858 3954 1216 4121 1466 4121 
C 1728 4121 2067 3947 2189 3420 
C 2272 3054 2278 2623 2278 2109 
C 2278 1691 2278 1176 2202 797 
C 2067 96 1690 -26 1466 -26 
z
" transform="scale(0.015625)"/>
       </defs>
       <use xlink:href="#CMR17-30" transform="scale(0.996264)"/>
      </g>
     </g>
    </g>
    <g id="xtick_2">
     <g id="line2d_3">
      <path d="M 196.529079 307.584 
L 196.529079 41.472 
" clip-path="url(#p1cf138cb32)" style="fill: none; stroke: #b0b0b0; stroke-width: 0.8; stroke-linecap: square"/>
     </g>
     <g id="line2d_4">
      <g>
       <use xlink:href="#m08d92e9d72" x="196.529079" y="307.584" style="stroke: #000000; stroke-width: 2"/>
      </g>
     </g>
     <g id="text_2">
      <!-- $\mathdefault{100}$ -->
      <g transform="translate(175.968364 331.839495)scale(0.3 -0.3)">
       <defs>
        <path id="CMR17-31" d="M 1702 4083 
C 1702 4217 1696 4224 1606 4224 
C 1357 3927 979 3833 621 3820 
C 602 3820 570 3820 563 3808 
C 557 3795 557 3782 557 3648 
C 755 3648 1088 3686 1344 3839 
L 1344 467 
C 1344 243 1331 166 781 166 
L 589 166 
L 589 0 
C 896 6 1216 12 1523 12 
C 1830 12 2150 6 2458 0 
L 2458 166 
L 2266 166 
C 1715 166 1702 236 1702 467 
L 1702 4083 
z
" transform="scale(0.015625)"/>
       </defs>
       <use xlink:href="#CMR17-31" transform="scale(0.996264)"/>
       <use xlink:href="#CMR17-30" transform="translate(45.690477 0)scale(0.996264)"/>
       <use xlink:href="#CMR17-30" transform="translate(91.380954 0)scale(0.996264)"/>
      </g>
     </g>
    </g>
    <g id="xtick_3">
     <g id="line2d_5">
      <path d="M 319.22543 307.584 
L 319.22543 41.472 
" clip-path="url(#p1cf138cb32)" style="fill: none; stroke: #b0b0b0; stroke-width: 0.8; stroke-linecap: square"/>
     </g>
     <g id="line2d_6">
      <g>
       <use xlink:href="#m08d92e9d72" x="319.22543" y="307.584" style="stroke: #000000; stroke-width: 2"/>
      </g>
     </g>
     <g id="text_3">
      <!-- $\mathdefault{200}$ -->
      <g transform="translate(298.664715 331.839495)scale(0.3 -0.3)">
       <defs>
        <path id="CMR17-32" d="M 2669 990 
L 2554 990 
C 2490 537 2438 460 2413 422 
C 2381 371 1920 371 1830 371 
L 602 371 
C 832 620 1280 1073 1824 1596 
C 2214 1966 2669 2400 2669 3033 
C 2669 3788 2067 4224 1395 4224 
C 691 4224 262 3603 262 3027 
C 262 2777 448 2745 525 2745 
C 589 2745 781 2783 781 3007 
C 781 3206 614 3264 525 3264 
C 486 3264 448 3257 422 3244 
C 544 3788 915 4057 1306 4057 
C 1862 4057 2227 3616 2227 3033 
C 2227 2477 1901 1998 1536 1583 
L 262 147 
L 262 0 
L 2515 0 
L 2669 990 
z
" transform="scale(0.015625)"/>
       </defs>
       <use xlink:href="#CMR17-32" transform="scale(0.996264)"/>
       <use xlink:href="#CMR17-30" transform="translate(45.690477 0)scale(0.996264)"/>
       <use xlink:href="#CMR17-30" transform="translate(91.380954 0)scale(0.996264)"/>
      </g>
     </g>
    </g>
    <g id="text_4">
     <!-- Number of channels -->
     <g transform="translate(138.448963 358.949199)scale(0.25 -0.25)">
      <defs>
       <path id="CMSS17-4e" d="M 1466 4179 
L 1350 4416 
L 563 4416 
L 563 0 
L 1062 0 
L 1062 3925 
L 1069 3931 
C 1114 3817 1139 3759 1402 3193 
L 2771 236 
L 2886 0 
L 3674 0 
L 3674 4416 
L 3174 4416 
L 3174 490 
L 3168 484 
C 3123 598 3098 655 2835 1222 
L 1466 4179 
z
" transform="scale(0.015625)"/>
       <path id="CMSS17-75" d="M 2618 2752 
L 2131 2752 
L 2131 976 
C 2131 500 1786 307 1421 307 
C 998 307 960 448 960 712 
L 960 2752 
L 474 2752 
L 474 680 
C 474 179 646 -64 1088 -64 
C 1306 -64 1798 -13 2144 307 
L 2144 -13 
L 2618 -13 
L 2618 2752 
z
" transform="scale(0.015625)"/>
       <path id="CMSS17-6d" d="M 4288 1878 
C 4288 2309 4179 2816 3462 2816 
C 2982 2816 2694 2515 2566 2328 
C 2451 2668 2182 2816 1798 2816 
C 1363 2816 1088 2566 941 2386 
L 941 2783 
L 474 2783 
L 474 0 
L 960 0 
L 960 1556 
C 960 1936 1101 2425 1555 2425 
C 2138 2425 2138 2013 2138 1826 
L 2138 0 
L 2624 0 
L 2624 1556 
C 2624 1936 2765 2425 3219 2425 
C 3802 2425 3802 2013 3802 1826 
L 3802 0 
L 4288 0 
L 4288 1878 
z
" transform="scale(0.015625)"/>
       <path id="CMSS17-62" d="M 954 4416 
L 480 4416 
L 480 -13 
L 966 -13 
L 966 275 
C 1210 38 1504 -64 1766 -64 
C 2381 -64 2880 559 2880 1382 
C 2880 2133 2496 2816 1926 2816 
C 1523 2816 1165 2649 954 2476 
L 954 4416 
z
M 966 2095 
C 1107 2276 1306 2425 1587 2425 
C 1965 2425 2394 2146 2394 1382 
C 2394 566 1882 326 1530 326 
C 1402 326 1267 358 1139 468 
C 966 624 966 721 966 812 
L 966 2095 
z
" transform="scale(0.015625)"/>
       <path id="CMSS17-65" d="M 2502 1375 
C 2502 1587 2490 2001 2285 2347 
C 2061 2713 1696 2816 1421 2816 
C 755 2816 192 2184 192 1363 
C 192 579 774 -64 1510 -64 
C 1798 -64 2150 19 2470 249 
C 2470 275 2458 414 2451 421 
C 2451 433 2432 629 2432 655 
C 2125 408 1773 326 1517 326 
C 1107 326 666 667 646 1375 
L 2502 1375 
z
M 698 1728 
C 781 2086 1062 2425 1421 2425 
C 1517 2425 1965 2412 2080 1728 
L 698 1728 
z
" transform="scale(0.015625)"/>
       <path id="CMSS17-72" d="M 954 1369 
C 954 1974 1395 2379 1958 2392 
L 1958 2816 
C 1549 2809 1165 2604 934 2270 
L 934 2783 
L 480 2783 
L 480 0 
L 954 0 
L 954 1369 
z
" transform="scale(0.015625)"/>
       <path id="CMSS17-6f" d="M 2829 1356 
C 2829 2175 2221 2816 1504 2816 
C 768 2816 173 2156 173 1356 
C 173 544 787 -64 1498 -64 
C 2227 -64 2829 563 2829 1356 
z
M 1504 339 
C 1050 339 659 710 659 1407 
C 659 2150 1114 2425 1498 2425 
C 1914 2425 2342 2124 2342 1407 
C 2342 684 1926 339 1504 339 
z
" transform="scale(0.015625)"/>
       <path id="CMSS17-66" d="M 1075 2380 
L 1722 2380 
L 1722 2752 
L 1062 2752 
L 1062 3563 
C 1062 4013 1408 4089 1606 4089 
C 1670 4089 1850 4089 2080 4007 
L 2080 4428 
C 1933 4460 1754 4480 1613 4480 
C 1018 4480 602 3994 602 3366 
L 602 2752 
L 160 2752 
L 160 2380 
L 602 2380 
L 602 0 
L 1075 0 
L 1075 2380 
z
" transform="scale(0.015625)"/>
       <path id="CMSS17-63" d="M 2464 2540 
C 2464 2585 2170 2713 2093 2739 
C 1882 2816 1613 2816 1542 2816 
C 710 2816 211 2092 211 1363 
C 211 595 768 -64 1517 -64 
C 1946 -64 2253 76 2502 243 
L 2464 665 
C 2189 454 1869 339 1523 339 
C 1024 339 698 774 698 1369 
C 698 1830 909 2412 1549 2412 
C 1901 2412 2099 2342 2394 2143 
L 2464 2540 
z
" transform="scale(0.015625)"/>
       <path id="CMSS17-68" d="M 2618 1878 
C 2618 2283 2522 2816 1798 2816 
C 1395 2816 1133 2617 947 2399 
L 947 4416 
L 474 4416 
L 474 0 
L 960 0 
L 960 1556 
C 960 1962 1114 2425 1549 2425 
C 2112 2425 2131 2045 2131 1826 
L 2131 0 
L 2618 0 
L 2618 1878 
z
" transform="scale(0.015625)"/>
       <path id="CMSS17-61" d="M 2406 1789 
C 2406 2399 1978 2816 1402 2816 
C 1120 2816 813 2764 461 2559 
L 499 2133 
C 659 2250 934 2438 1395 2438 
C 1722 2438 1920 2185 1920 1782 
L 1920 1536 
C 896 1504 256 1209 256 711 
C 256 452 416 -64 947 -64 
C 1043 -64 1562 -52 1933 224 
L 1933 -13 
L 2406 -13 
L 2406 1789 
z
M 1920 824 
C 1920 711 1920 559 1728 446 
C 1562 339 1350 326 1261 326 
C 941 326 723 503 723 723 
C 723 1165 1722 1209 1920 1216 
L 1920 824 
z
" transform="scale(0.015625)"/>
       <path id="CMSS17-6e" d="M 2618 1878 
C 2618 2283 2522 2816 1798 2816 
C 1389 2816 1120 2604 941 2386 
L 941 2783 
L 474 2783 
L 474 0 
L 960 0 
L 960 1556 
C 960 1962 1114 2425 1549 2425 
C 2112 2425 2131 2045 2131 1826 
L 2131 0 
L 2618 0 
L 2618 1878 
z
" transform="scale(0.015625)"/>
       <path id="CMSS17-6c" d="M 947 4416 
L 474 4416 
L 474 0 
L 947 0 
L 947 4416 
z
" transform="scale(0.015625)"/>
       <path id="CMSS17-73" d="M 2061 2623 
C 1683 2803 1389 2816 1197 2816 
C 742 2816 198 2655 198 2009 
C 198 1363 902 1222 1094 1183 
C 1389 1126 1715 1062 1715 742 
C 1715 339 1254 339 1171 339 
C 915 339 563 409 243 639 
L 166 211 
C 531 0 883 -64 1178 -64 
C 1965 -64 2163 416 2163 780 
C 2163 1094 1984 1305 1862 1401 
C 1651 1567 1574 1587 1050 1695 
C 960 1708 646 1779 646 2067 
C 646 2431 1050 2431 1139 2431 
C 1555 2431 1811 2303 1984 2207 
L 2061 2623 
z
" transform="scale(0.015625)"/>
      </defs>
      <use xlink:href="#CMSS17-4e" transform="scale(0.996264)"/>
      <use xlink:href="#CMSS17-75" transform="translate(66.061519 0)scale(0.996264)"/>
      <use xlink:href="#CMSS17-6d" transform="translate(114.266462 0)scale(0.996264)"/>
      <use xlink:href="#CMSS17-62" transform="translate(188.495717 0)scale(0.996264)"/>
      <use xlink:href="#CMSS17-65" transform="translate(239.303099 0)scale(0.996264)"/>
      <use xlink:href="#CMSS17-72" transform="translate(280.941921 0)scale(0.996264)"/>
      <use xlink:href="#CMSS17-6f" transform="translate(344.080806 0)scale(0.996264)"/>
      <use xlink:href="#CMSS17-66" transform="translate(390.92443 0)scale(0.996264)"/>
      <use xlink:href="#CMSS17-63" transform="translate(450.780201 0)scale(0.996264)"/>
      <use xlink:href="#CMSS17-68" transform="translate(492.419023 0)scale(0.996264)"/>
      <use xlink:href="#CMSS17-61" transform="translate(540.623966 0)scale(0.996264)"/>
      <use xlink:href="#CMSS17-6e" transform="translate(585.545887 0)scale(0.996264)"/>
      <use xlink:href="#CMSS17-6e" transform="translate(633.75083 0)scale(0.996264)"/>
      <use xlink:href="#CMSS17-65" transform="translate(681.955773 0)scale(0.996264)"/>
      <use xlink:href="#CMSS17-6c" transform="translate(723.594595 0)scale(0.996264)"/>
      <use xlink:href="#CMSS17-73" transform="translate(745.775318 0)scale(0.996264)"/>
     </g>
    </g>
   </g>
   <g id="matplotlib.axis_2">
    <g id="ytick_1">
     <g id="line2d_7">
      <path d="M 57.6 295.909097 
L 414.72 295.909097 
" clip-path="url(#p1cf138cb32)" style="fill: none; stroke: #b0b0b0; stroke-width: 0.8; stroke-linecap: square"/>
     </g>
     <g id="line2d_8">
      <defs>
       <path id="ma0fed982d8" d="M 0 0 
L 5 0 
" style="stroke: #000000; stroke-width: 2"/>
      </defs>
      <g>
       <use xlink:href="#ma0fed982d8" x="57.6" y="295.909097" style="stroke: #000000; stroke-width: 2"/>
      </g>
     </g>
     <g id="text_5">
      <!-- $\mathdefault{0}$ -->
      <g transform="translate(40.392857 306.286844)scale(0.3 -0.3)">
       <use xlink:href="#CMR17-30" transform="scale(0.996264)"/>
      </g>
     </g>
    </g>
    <g id="ytick_2">
     <g id="line2d_9">
      <path d="M 57.6 190.634945 
L 414.72 190.634945 
" clip-path="url(#p1cf138cb32)" style="fill: none; stroke: #b0b0b0; stroke-width: 0.8; stroke-linecap: square"/>
     </g>
     <g id="line2d_10">
      <g>
       <use xlink:href="#ma0fed982d8" x="57.6" y="190.634945" style="stroke: #000000; stroke-width: 2"/>
      </g>
     </g>
     <g id="text_6">
      <!-- $\mathdefault{500}$ -->
      <g transform="translate(12.978571 201.012693)scale(0.3 -0.3)">
       <defs>
        <path id="CMR17-35" d="M 730 3750 
C 794 3724 1056 3641 1325 3641 
C 1920 3641 2246 3961 2432 4140 
C 2432 4191 2432 4224 2394 4224 
C 2387 4224 2374 4224 2323 4198 
C 2099 4102 1837 4032 1517 4032 
C 1325 4032 1037 4055 723 4191 
C 653 4224 640 4224 634 4224 
C 602 4224 595 4217 595 4090 
L 595 2231 
C 595 2113 595 2080 659 2080 
C 691 2080 704 2093 736 2139 
C 941 2435 1222 2560 1542 2560 
C 1766 2560 2246 2415 2246 1293 
C 2246 1087 2246 716 2054 422 
C 1894 159 1645 25 1370 25 
C 947 25 518 319 403 812 
C 429 806 480 793 506 793 
C 589 793 749 838 749 1036 
C 749 1209 627 1280 506 1280 
C 358 1280 262 1190 262 1011 
C 262 454 704 -128 1382 -128 
C 2042 -128 2669 441 2669 1267 
C 2669 2054 2170 2662 1549 2662 
C 1222 2662 947 2540 730 2304 
L 730 3750 
z
" transform="scale(0.015625)"/>
       </defs>
       <use xlink:href="#CMR17-35" transform="scale(0.996264)"/>
       <use xlink:href="#CMR17-30" transform="translate(45.690477 0)scale(0.996264)"/>
       <use xlink:href="#CMR17-30" transform="translate(91.380954 0)scale(0.996264)"/>
      </g>
     </g>
    </g>
    <g id="ytick_3">
     <g id="line2d_11">
      <path d="M 57.6 85.360794 
L 414.72 85.360794 
" clip-path="url(#p1cf138cb32)" style="fill: none; stroke: #b0b0b0; stroke-width: 0.8; stroke-linecap: square"/>
     </g>
     <g id="line2d_12">
      <g>
       <use xlink:href="#ma0fed982d8" x="57.6" y="85.360794" style="stroke: #000000; stroke-width: 2"/>
      </g>
     </g>
     <g id="text_7">
      <!-- $\mathdefault{1000}$ -->
      <g transform="translate(-0.728573 95.738541)scale(0.3 -0.3)">
       <use xlink:href="#CMR17-31" transform="scale(0.996264)"/>
       <use xlink:href="#CMR17-30" transform="translate(45.690477 0)scale(0.996264)"/>
       <use xlink:href="#CMR17-30" transform="translate(91.380954 0)scale(0.996264)"/>
       <use xlink:href="#CMR17-30" transform="translate(137.071431 0)scale(0.996264)"/>
      </g>
     </g>
    </g>
    <g id="text_8">
     <!-- Event count -->
     <g transform="translate(-9.573107 233.593028)rotate(-90)scale(0.25 -0.25)">
      <defs>
       <path id="CMSS17-45" d="M 1958 435 
C 1446 435 1216 435 1101 428 
L 1101 2105 
L 3085 2105 
L 3085 2496 
L 1101 2496 
L 1101 3993 
L 1926 3993 
C 2003 3993 2080 3987 2157 3987 
L 3251 3987 
L 3251 4403 
L 563 4403 
L 563 0 
L 3334 0 
L 3334 441 
L 1958 435 
z
" transform="scale(0.015625)"/>
       <path id="CMSS17-76" d="M 2675 2752 
L 2176 2752 
L 1747 1555 
C 1613 1164 1421 627 1389 352 
L 1382 352 
C 1370 467 1318 633 1286 748 
C 1248 889 1197 1056 1158 1171 
L 595 2752 
L 83 2752 
L 1094 0 
L 1664 0 
L 2675 2752 
z
" transform="scale(0.015625)"/>
       <path id="CMSS17-74" d="M 1069 2380 
L 1901 2380 
L 1901 2752 
L 1069 2752 
L 1069 3520 
L 614 3520 
L 614 2752 
L 109 2752 
L 109 2380 
L 602 2380 
L 602 751 
C 602 384 685 -64 1107 -64 
C 1427 -64 1722 25 2003 172 
L 1901 551 
C 1747 416 1562 339 1363 339 
C 1082 339 1069 699 1069 860 
L 1069 2380 
z
" transform="scale(0.015625)"/>
      </defs>
      <use xlink:href="#CMSS17-45" transform="scale(0.996264)"/>
      <use xlink:href="#CMSS17-76" transform="translate(55.892013 0)scale(0.996264)"/>
      <use xlink:href="#CMSS17-65" transform="translate(98.892155 0)scale(0.996264)"/>
      <use xlink:href="#CMSS17-6e" transform="translate(140.530977 0)scale(0.996264)"/>
      <use xlink:href="#CMSS17-74" transform="translate(188.73592 0)scale(0.996264)"/>
      <use xlink:href="#CMSS17-63" transform="translate(253.7966 0)scale(0.996264)"/>
      <use xlink:href="#CMSS17-6f" transform="translate(295.435422 0)scale(0.996264)"/>
      <use xlink:href="#CMSS17-75" transform="translate(342.279045 0)scale(0.996264)"/>
      <use xlink:href="#CMSS17-6e" transform="translate(390.483988 0)scale(0.996264)"/>
      <use xlink:href="#CMSS17-74" transform="translate(438.688931 0)scale(0.996264)"/>
     </g>
    </g>
   </g>
   <g id="line2d_13">
    <path d="M 73.832727 288.750454 
L 109.905455 224.74377 
L 145.978182 83.465859 
L 182.050909 53.568 
L 218.123636 110.416042 
L 254.196364 204.320585 
L 290.269091 259.273692 
L 326.341818 286.644971 
L 362.414545 291.698131 
L 398.487273 293.803614 
" clip-path="url(#p1cf138cb32)" style="fill: none; stroke: #008000; stroke-linecap: square"/>
    <defs>
     <path id="mb5a4323baa" d="M 0 -5 
L -1.12257 -1.545085 
L -4.755283 -1.545085 
L -1.816356 0.59017 
L -2.938926 4.045085 
L -0 1.90983 
L 2.938926 4.045085 
L 1.816356 0.59017 
L 4.755283 -1.545085 
L 1.12257 -1.545085 
z
" style="stroke: #008000; stroke-linejoin: bevel"/>
    </defs>
    <g clip-path="url(#p1cf138cb32)">
     <use xlink:href="#mb5a4323baa" x="73.832727" y="288.750454" style="fill: #008000; stroke: #008000; stroke-linejoin: bevel"/>
     <use xlink:href="#mb5a4323baa" x="109.905455" y="224.74377" style="fill: #008000; stroke: #008000; stroke-linejoin: bevel"/>
     <use xlink:href="#mb5a4323baa" x="145.978182" y="83.465859" style="fill: #008000; stroke: #008000; stroke-linejoin: bevel"/>
     <use xlink:href="#mb5a4323baa" x="182.050909" y="53.568" style="fill: #008000; stroke: #008000; stroke-linejoin: bevel"/>
     <use xlink:href="#mb5a4323baa" x="218.123636" y="110.416042" style="fill: #008000; stroke: #008000; stroke-linejoin: bevel"/>
     <use xlink:href="#mb5a4323baa" x="254.196364" y="204.320585" style="fill: #008000; stroke: #008000; stroke-linejoin: bevel"/>
     <use xlink:href="#mb5a4323baa" x="290.269091" y="259.273692" style="fill: #008000; stroke: #008000; stroke-linejoin: bevel"/>
     <use xlink:href="#mb5a4323baa" x="326.341818" y="286.644971" style="fill: #008000; stroke: #008000; stroke-linejoin: bevel"/>
     <use xlink:href="#mb5a4323baa" x="362.414545" y="291.698131" style="fill: #008000; stroke: #008000; stroke-linejoin: bevel"/>
     <use xlink:href="#mb5a4323baa" x="398.487273" y="293.803614" style="fill: #008000; stroke: #008000; stroke-linejoin: bevel"/>
    </g>
   </g>
   <g id="line2d_14">
    <path d="M 73.832727 291.066486 
L 92.850662 220.111708 
L 111.868596 83.676407 
L 130.886531 118.837974 
L 149.904465 92.940533 
L 168.9224 194.424815 
L 187.940334 232.744606 
L 206.958268 276.328104 
L 225.976203 291.066486 
L 244.994137 295.488 
" clip-path="url(#p1cf138cb32)" style="fill: none; stroke: #ff0000; stroke-linecap: square"/>
    <defs>
     <path id="maea8129924" d="M 0 -5 
L -5 5 
L 5 5 
z
" style="stroke: #ff0000; stroke-linejoin: miter"/>
    </defs>
    <g clip-path="url(#p1cf138cb32)">
     <use xlink:href="#maea8129924" x="73.832727" y="291.066486" style="fill: #ff0000; stroke: #ff0000; stroke-linejoin: miter"/>
     <use xlink:href="#maea8129924" x="92.850662" y="220.111708" style="fill: #ff0000; stroke: #ff0000; stroke-linejoin: miter"/>
     <use xlink:href="#maea8129924" x="111.868596" y="83.676407" style="fill: #ff0000; stroke: #ff0000; stroke-linejoin: miter"/>
     <use xlink:href="#maea8129924" x="130.886531" y="118.837974" style="fill: #ff0000; stroke: #ff0000; stroke-linejoin: miter"/>
     <use xlink:href="#maea8129924" x="149.904465" y="92.940533" style="fill: #ff0000; stroke: #ff0000; stroke-linejoin: miter"/>
     <use xlink:href="#maea8129924" x="168.9224" y="194.424815" style="fill: #ff0000; stroke: #ff0000; stroke-linejoin: miter"/>
     <use xlink:href="#maea8129924" x="187.940334" y="232.744606" style="fill: #ff0000; stroke: #ff0000; stroke-linejoin: miter"/>
     <use xlink:href="#maea8129924" x="206.958268" y="276.328104" style="fill: #ff0000; stroke: #ff0000; stroke-linejoin: miter"/>
     <use xlink:href="#maea8129924" x="225.976203" y="291.066486" style="fill: #ff0000; stroke: #ff0000; stroke-linejoin: miter"/>
     <use xlink:href="#maea8129924" x="244.994137" y="295.488" style="fill: #ff0000; stroke: #ff0000; stroke-linejoin: miter"/>
    </g>
   </g>
   <g id="patch_3">
    <path d="M 57.6 307.584 
L 57.6 41.472 
" style="fill: none; stroke: #000000; stroke-linejoin: miter; stroke-linecap: square"/>
   </g>
   <g id="patch_4">
    <path d="M 414.72 307.584 
L 414.72 41.472 
" style="fill: none; stroke: #000000; stroke-linejoin: miter; stroke-linecap: square"/>
   </g>
   <g id="patch_5">
    <path d="M 57.6 307.584 
L 414.72 307.584 
" style="fill: none; stroke: #000000; stroke-linejoin: miter; stroke-linecap: square"/>
   </g>
   <g id="patch_6">
    <path d="M 57.6 41.472 
L 414.72 41.472 
" style="fill: none; stroke: #000000; stroke-linejoin: miter; stroke-linecap: square"/>
   </g>
   <g id="legend_1">
    <g id="patch_7">
     <path d="M 335.438799 95.283489 
L 404.22 95.283489 
Q 407.22 95.283489 407.22 92.283489 
L 407.22 51.972 
Q 407.22 48.972 404.22 48.972 
L 335.438799 48.972 
Q 332.438799 48.972 332.438799 51.972 
L 332.438799 92.283489 
Q 332.438799 95.283489 335.438799 95.283489 
z
" style="fill: #ffffff; opacity: 0.8; stroke: #cccccc; stroke-linejoin: miter"/>
    </g>
    <g id="line2d_15">
     <path d="M 338.438799 60.222 
L 353.438799 60.222 
L 368.438799 60.222 
" style="fill: none; stroke: #008000; stroke-linecap: square"/>
     <g>
      <use xlink:href="#mb5a4323baa" x="353.438799" y="60.222" style="fill: #008000; stroke: #008000; stroke-linejoin: bevel"/>
     </g>
    </g>
    <g id="text_9">
     <!-- UP -->
     <g transform="translate(380.438799 65.472)scale(0.15 -0.15)">
      <defs>
       <path id="CMSS17-55" d="M 3552 4416 
L 3066 4416 
L 3066 1459 
C 3066 608 2547 230 2074 230 
C 1587 230 1101 627 1101 1452 
L 1101 4416 
L 563 4416 
L 563 1465 
C 563 544 1274 -128 2067 -128 
C 2861 -128 3552 544 3552 1465 
L 3552 4416 
z
" transform="scale(0.015625)"/>
       <path id="CMSS17-50" d="M 2106 1856 
C 2874 1856 3501 2447 3501 3139 
C 3501 3818 2899 4416 2067 4416 
L 570 4416 
L 570 0 
L 1107 0 
L 1107 1856 
L 2106 1856 
z
M 1926 4057 
C 2669 4057 2995 3598 2995 3139 
C 2995 2711 2694 2227 1926 2227 
L 1094 2227 
L 1094 4057 
L 1926 4057 
z
" transform="scale(0.015625)"/>
      </defs>
      <use xlink:href="#CMSS17-55" transform="scale(0.996264)"/>
      <use xlink:href="#CMSS17-50" transform="translate(64.13974 0)scale(0.996264)"/>
     </g>
    </g>
    <g id="line2d_16">
     <path d="M 338.438799 81.127745 
L 353.438799 81.127745 
L 368.438799 81.127745 
" style="fill: none; stroke: #ff0000; stroke-linecap: square"/>
     <g>
      <use xlink:href="#maea8129924" x="353.438799" y="81.127745" style="fill: #ff0000; stroke: #ff0000; stroke-linejoin: miter"/>
     </g>
    </g>
    <g id="text_10">
     <!-- DN -->
     <g transform="translate(380.438799 86.377745)scale(0.15 -0.15)">
      <defs>
       <path id="CMSS17-44" d="M 570 4416 
L 570 0 
L 2144 0 
C 3194 0 4000 981 4000 2169 
C 4000 3396 3194 4416 2144 4416 
L 570 4416 
z
M 1094 358 
L 1094 4057 
L 2003 4057 
C 2861 4057 3475 3275 3475 2169 
C 3475 1108 2867 358 2003 358 
L 1094 358 
z
" transform="scale(0.015625)"/>
      </defs>
      <use xlink:href="#CMSS17-44" transform="scale(0.996264)"/>
      <use xlink:href="#CMSS17-4e" transform="translate(67.542842 0)scale(0.996264)"/>
     </g>
    </g>
   </g>
  </g>
 </g>
 <defs>
  <clipPath id="p1cf138cb32">
   <rect x="57.6" y="41.472" width="357.12" height="266.112"/>
  </clipPath>
 </defs>
</svg>
